%TF.GenerationSoftware,KiCad,Pcbnew,(6.0.8-1)-1*%
%TF.CreationDate,2024-02-23T21:50:08-06:00*%
%TF.ProjectId,Addressable LED Interface,41646472-6573-4736-9162-6c65204c4544,rev?*%
%TF.SameCoordinates,Original*%
%TF.FileFunction,Copper,L1,Top*%
%TF.FilePolarity,Positive*%
%FSLAX46Y46*%
G04 Gerber Fmt 4.6, Leading zero omitted, Abs format (unit mm)*
G04 Created by KiCad (PCBNEW (6.0.8-1)-1) date 2024-02-23 21:50:08*
%MOMM*%
%LPD*%
G01*
G04 APERTURE LIST*
%TA.AperFunction,ComponentPad*%
%ADD10R,1.700000X1.700000*%
%TD*%
%TA.AperFunction,ComponentPad*%
%ADD11O,1.700000X1.700000*%
%TD*%
%TA.AperFunction,ComponentPad*%
%ADD12C,1.600000*%
%TD*%
%TA.AperFunction,ComponentPad*%
%ADD13C,3.500000*%
%TD*%
%TA.AperFunction,ComponentPad*%
%ADD14C,1.700000*%
%TD*%
%TA.AperFunction,ComponentPad*%
%ADD15C,1.650000*%
%TD*%
%TA.AperFunction,Conductor*%
%ADD16C,0.250000*%
%TD*%
%TA.AperFunction,Conductor*%
%ADD17C,0.750000*%
%TD*%
G04 APERTURE END LIST*
D10*
%TO.P,J2,1,Pin_1*%
%TO.N,/CH2*%
X139700000Y-114300000D03*
D11*
%TO.P,J2,2,Pin_2*%
%TO.N,+6V*%
X139700000Y-116840000D03*
%TO.P,J2,3,Pin_3*%
%TO.N,GND*%
X139700000Y-119380000D03*
%TD*%
D12*
%TO.P,J5,1,1*%
%TO.N,/CH1*%
X134496000Y-100900000D03*
%TO.P,J5,2,2*%
%TO.N,VDD*%
X130996000Y-105900000D03*
%TO.P,J5,3,3*%
%TO.N,GND*%
X127496000Y-100900000D03*
%TD*%
D13*
%TO.P,H1,1,1*%
%TO.N,unconnected-(H1-Pad1)*%
X123000000Y-95000000D03*
%TD*%
D12*
%TO.P,J6,1,1*%
%TO.N,/CH2*%
X147796000Y-100900000D03*
%TO.P,J6,2,2*%
%TO.N,VDD*%
X144296000Y-105900000D03*
%TO.P,J6,3,3*%
%TO.N,GND*%
X140796000Y-100900000D03*
%TD*%
D13*
%TO.P,H3,1,1*%
%TO.N,unconnected-(H3-Pad1)*%
X166000000Y-121000000D03*
%TD*%
%TO.P,H4,1,1*%
%TO.N,unconnected-(H4-Pad1)*%
X166000000Y-95000000D03*
%TD*%
%TO.P,H2,1,1*%
%TO.N,unconnected-(H2-Pad1)*%
X123000000Y-121000000D03*
%TD*%
D14*
%TO.P,U1,1,EN*%
%TO.N,+BATT*%
X153670000Y-119380000D03*
%TO.P,U1,2,VIN*%
X156210000Y-119380000D03*
%TO.P,U1,3,GND*%
%TO.N,GND*%
X158750000Y-119380000D03*
%TO.P,U1,4,VOUT*%
%TO.N,+5V*%
X161290000Y-119380000D03*
%TD*%
D10*
%TO.P,J1,1,Pin_1*%
%TO.N,/CH1*%
X132080000Y-114300000D03*
D11*
%TO.P,J1,2,Pin_2*%
%TO.N,+6V*%
X132080000Y-116840000D03*
%TO.P,J1,3,Pin_3*%
%TO.N,GND*%
X132080000Y-119380000D03*
%TD*%
D15*
%TO.P,J3,1,1*%
%TO.N,+BATT*%
X146068000Y-111290000D03*
%TO.P,J3,2,2*%
%TO.N,GND*%
X149568000Y-116290000D03*
%TD*%
D10*
%TO.P,J4,1,Pin_1*%
%TO.N,+5V*%
X137825000Y-110400000D03*
D11*
%TO.P,J4,2,Pin_2*%
%TO.N,VDD*%
X135285000Y-110400000D03*
%TO.P,J4,3,Pin_3*%
%TO.N,+6V*%
X132745000Y-110400000D03*
%TD*%
D16*
%TO.N,+BATT*%
X153700000Y-113600000D02*
X153670000Y-113630000D01*
D17*
X151390000Y-111290000D02*
X153700000Y-113600000D01*
X153670000Y-119380000D02*
X156210000Y-119380000D01*
X146068000Y-111290000D02*
X151390000Y-111290000D01*
X153670000Y-113630000D02*
X153670000Y-119380000D01*
%TO.N,+5V*%
X161290000Y-112710000D02*
X161290000Y-119380000D01*
X157100000Y-108500000D02*
X161300000Y-112700000D01*
X137825000Y-110375000D02*
X139700000Y-108500000D01*
X137825000Y-110400000D02*
X137825000Y-110375000D01*
X139700000Y-108500000D02*
X157100000Y-108500000D01*
X161300000Y-112700000D02*
X161290000Y-112710000D01*
%TO.N,+6V*%
X139700000Y-116840000D02*
X132080000Y-116840000D01*
X132080000Y-116840000D02*
X130140000Y-116840000D01*
X130300000Y-110400000D02*
X132745000Y-110400000D01*
X130140000Y-116840000D02*
X129500000Y-116200000D01*
X129500000Y-111200000D02*
X130300000Y-110400000D01*
X129500000Y-116200000D02*
X129500000Y-111200000D01*
%TD*%
%TA.AperFunction,Conductor*%
%TO.N,VDD*%
G36*
X164578852Y-93028502D02*
G01*
X164625345Y-93082158D01*
X164635449Y-93152432D01*
X164605955Y-93217012D01*
X164593809Y-93229232D01*
X164399573Y-93399573D01*
X164396864Y-93402662D01*
X164207085Y-93619062D01*
X164207081Y-93619068D01*
X164204367Y-93622162D01*
X164202078Y-93625588D01*
X164202074Y-93625593D01*
X164079256Y-93809405D01*
X164039885Y-93868327D01*
X163908941Y-94133855D01*
X163813776Y-94414203D01*
X163756017Y-94704574D01*
X163736654Y-95000000D01*
X163756017Y-95295426D01*
X163813776Y-95585797D01*
X163908941Y-95866145D01*
X164039885Y-96131673D01*
X164042179Y-96135106D01*
X164195489Y-96364551D01*
X164204367Y-96377838D01*
X164207081Y-96380932D01*
X164207085Y-96380938D01*
X164396864Y-96597338D01*
X164399573Y-96600427D01*
X164402662Y-96603136D01*
X164619062Y-96792915D01*
X164619068Y-96792919D01*
X164622162Y-96795633D01*
X164625588Y-96797922D01*
X164625593Y-96797926D01*
X164809405Y-96920744D01*
X164868327Y-96960115D01*
X164872026Y-96961939D01*
X164872031Y-96961942D01*
X165008313Y-97029148D01*
X165133855Y-97091059D01*
X165137760Y-97092384D01*
X165137761Y-97092385D01*
X165410290Y-97184896D01*
X165410294Y-97184897D01*
X165414203Y-97186224D01*
X165418247Y-97187028D01*
X165418253Y-97187030D01*
X165700535Y-97243180D01*
X165700541Y-97243181D01*
X165704574Y-97243983D01*
X165708679Y-97244252D01*
X165708686Y-97244253D01*
X165995881Y-97263076D01*
X166000000Y-97263346D01*
X166004119Y-97263076D01*
X166291314Y-97244253D01*
X166291321Y-97244252D01*
X166295426Y-97243983D01*
X166299459Y-97243181D01*
X166299465Y-97243180D01*
X166581747Y-97187030D01*
X166581753Y-97187028D01*
X166585797Y-97186224D01*
X166589706Y-97184897D01*
X166589710Y-97184896D01*
X166862239Y-97092385D01*
X166862240Y-97092384D01*
X166866145Y-97091059D01*
X166991687Y-97029148D01*
X167127969Y-96961942D01*
X167127974Y-96961939D01*
X167131673Y-96960115D01*
X167190595Y-96920744D01*
X167374407Y-96797926D01*
X167374412Y-96797922D01*
X167377838Y-96795633D01*
X167380932Y-96792919D01*
X167380938Y-96792915D01*
X167597338Y-96603136D01*
X167600427Y-96600427D01*
X167770768Y-96406191D01*
X167830722Y-96368164D01*
X167901717Y-96368586D01*
X167961214Y-96407325D01*
X167990322Y-96472080D01*
X167991500Y-96489269D01*
X167991500Y-119510731D01*
X167971498Y-119578852D01*
X167917842Y-119625345D01*
X167847568Y-119635449D01*
X167782988Y-119605955D01*
X167770768Y-119593809D01*
X167603136Y-119402662D01*
X167600427Y-119399573D01*
X167546011Y-119351851D01*
X167380938Y-119207085D01*
X167380932Y-119207081D01*
X167377838Y-119204367D01*
X167374412Y-119202078D01*
X167374407Y-119202074D01*
X167135106Y-119042179D01*
X167131673Y-119039885D01*
X167127974Y-119038061D01*
X167127969Y-119038058D01*
X166920922Y-118935954D01*
X166866145Y-118908941D01*
X166862239Y-118907615D01*
X166589710Y-118815104D01*
X166589706Y-118815103D01*
X166585797Y-118813776D01*
X166581753Y-118812972D01*
X166581747Y-118812970D01*
X166299465Y-118756820D01*
X166299459Y-118756819D01*
X166295426Y-118756017D01*
X166291321Y-118755748D01*
X166291314Y-118755747D01*
X166004119Y-118736924D01*
X166000000Y-118736654D01*
X165995881Y-118736924D01*
X165708686Y-118755747D01*
X165708679Y-118755748D01*
X165704574Y-118756017D01*
X165700541Y-118756819D01*
X165700535Y-118756820D01*
X165418253Y-118812970D01*
X165418247Y-118812972D01*
X165414203Y-118813776D01*
X165410294Y-118815103D01*
X165410290Y-118815104D01*
X165137761Y-118907615D01*
X165133855Y-118908941D01*
X165079078Y-118935954D01*
X164872031Y-119038058D01*
X164872026Y-119038061D01*
X164868327Y-119039885D01*
X164864894Y-119042179D01*
X164625593Y-119202074D01*
X164625588Y-119202078D01*
X164622162Y-119204367D01*
X164619068Y-119207081D01*
X164619062Y-119207085D01*
X164453989Y-119351851D01*
X164399573Y-119399573D01*
X164396864Y-119402662D01*
X164207085Y-119619062D01*
X164207081Y-119619068D01*
X164204367Y-119622162D01*
X164202078Y-119625588D01*
X164202074Y-119625593D01*
X164093799Y-119787639D01*
X164039885Y-119868327D01*
X163908941Y-120133855D01*
X163907616Y-120137760D01*
X163907615Y-120137761D01*
X163835559Y-120350033D01*
X163813776Y-120414203D01*
X163812972Y-120418247D01*
X163812970Y-120418253D01*
X163758904Y-120690062D01*
X163756017Y-120704574D01*
X163755748Y-120708679D01*
X163755747Y-120708686D01*
X163753580Y-120741753D01*
X163736654Y-121000000D01*
X163756017Y-121295426D01*
X163813776Y-121585797D01*
X163908941Y-121866145D01*
X164039885Y-122131673D01*
X164042179Y-122135106D01*
X164195489Y-122364551D01*
X164204367Y-122377838D01*
X164207081Y-122380932D01*
X164207085Y-122380938D01*
X164396864Y-122597338D01*
X164399573Y-122600427D01*
X164402662Y-122603136D01*
X164593809Y-122770768D01*
X164631836Y-122830722D01*
X164631414Y-122901717D01*
X164592675Y-122961214D01*
X164527920Y-122990322D01*
X164510731Y-122991500D01*
X124489269Y-122991500D01*
X124421148Y-122971498D01*
X124374655Y-122917842D01*
X124364551Y-122847568D01*
X124394045Y-122782988D01*
X124406191Y-122770768D01*
X124597338Y-122603136D01*
X124600427Y-122600427D01*
X124603136Y-122597338D01*
X124792915Y-122380938D01*
X124792919Y-122380932D01*
X124795633Y-122377838D01*
X124804512Y-122364551D01*
X124957821Y-122135106D01*
X124960115Y-122131673D01*
X125091059Y-121866145D01*
X125186224Y-121585797D01*
X125243983Y-121295426D01*
X125263346Y-121000000D01*
X125246420Y-120741753D01*
X125244253Y-120708686D01*
X125244252Y-120708679D01*
X125243983Y-120704574D01*
X125241097Y-120690062D01*
X125187030Y-120418253D01*
X125187028Y-120418247D01*
X125186224Y-120414203D01*
X125164442Y-120350033D01*
X125092385Y-120137761D01*
X125092384Y-120137760D01*
X125091059Y-120133855D01*
X124960115Y-119868327D01*
X124906201Y-119787639D01*
X124797926Y-119625593D01*
X124797922Y-119625588D01*
X124795633Y-119622162D01*
X124792919Y-119619068D01*
X124792915Y-119619062D01*
X124603136Y-119402662D01*
X124600427Y-119399573D01*
X124546011Y-119351851D01*
X124380938Y-119207085D01*
X124380932Y-119207081D01*
X124377838Y-119204367D01*
X124374412Y-119202078D01*
X124374407Y-119202074D01*
X124135106Y-119042179D01*
X124131673Y-119039885D01*
X124127974Y-119038061D01*
X124127969Y-119038058D01*
X123920922Y-118935954D01*
X123866145Y-118908941D01*
X123862239Y-118907615D01*
X123589710Y-118815104D01*
X123589706Y-118815103D01*
X123585797Y-118813776D01*
X123581753Y-118812972D01*
X123581747Y-118812970D01*
X123299465Y-118756820D01*
X123299459Y-118756819D01*
X123295426Y-118756017D01*
X123291321Y-118755748D01*
X123291314Y-118755747D01*
X123004119Y-118736924D01*
X123000000Y-118736654D01*
X122995881Y-118736924D01*
X122708686Y-118755747D01*
X122708679Y-118755748D01*
X122704574Y-118756017D01*
X122700541Y-118756819D01*
X122700535Y-118756820D01*
X122418253Y-118812970D01*
X122418247Y-118812972D01*
X122414203Y-118813776D01*
X122410294Y-118815103D01*
X122410290Y-118815104D01*
X122137761Y-118907615D01*
X122133855Y-118908941D01*
X122079078Y-118935954D01*
X121872031Y-119038058D01*
X121872026Y-119038061D01*
X121868327Y-119039885D01*
X121864894Y-119042179D01*
X121625593Y-119202074D01*
X121625588Y-119202078D01*
X121622162Y-119204367D01*
X121619068Y-119207081D01*
X121619062Y-119207085D01*
X121453989Y-119351851D01*
X121399573Y-119399573D01*
X121396864Y-119402662D01*
X121229232Y-119593809D01*
X121169278Y-119631836D01*
X121098283Y-119631414D01*
X121038786Y-119592675D01*
X121009678Y-119527920D01*
X121008500Y-119510731D01*
X121008500Y-116153507D01*
X128612850Y-116153507D01*
X128613195Y-116160094D01*
X128613195Y-116160098D01*
X128616327Y-116219850D01*
X128616500Y-116226445D01*
X128616500Y-116246306D01*
X128616844Y-116249577D01*
X128618576Y-116266059D01*
X128619093Y-116272628D01*
X128622570Y-116338971D01*
X128626042Y-116351929D01*
X128629645Y-116371372D01*
X128631046Y-116384702D01*
X128651578Y-116447894D01*
X128653444Y-116454196D01*
X128670638Y-116518363D01*
X128673634Y-116524242D01*
X128673637Y-116524251D01*
X128676728Y-116530317D01*
X128684292Y-116548579D01*
X128686392Y-116555043D01*
X128686395Y-116555051D01*
X128688436Y-116561331D01*
X128691738Y-116567050D01*
X128691740Y-116567055D01*
X128721654Y-116618867D01*
X128724787Y-116624637D01*
X128754953Y-116683839D01*
X128759109Y-116688971D01*
X128763391Y-116694259D01*
X128774589Y-116710552D01*
X128781296Y-116722169D01*
X128785713Y-116727075D01*
X128785717Y-116727080D01*
X128825747Y-116771538D01*
X128830031Y-116776554D01*
X128840441Y-116789409D01*
X128842528Y-116791986D01*
X128856573Y-116806031D01*
X128861114Y-116810816D01*
X128905566Y-116860185D01*
X128910911Y-116864068D01*
X128910913Y-116864070D01*
X128916418Y-116868069D01*
X128931455Y-116880912D01*
X129459085Y-117408542D01*
X129471926Y-117423577D01*
X129475927Y-117429084D01*
X129475932Y-117429090D01*
X129479815Y-117434434D01*
X129484725Y-117438855D01*
X129484726Y-117438856D01*
X129529194Y-117478895D01*
X129533979Y-117483436D01*
X129548015Y-117497472D01*
X129550579Y-117499548D01*
X129563447Y-117509969D01*
X129568462Y-117514253D01*
X129612920Y-117554283D01*
X129612925Y-117554287D01*
X129617831Y-117558704D01*
X129623547Y-117562004D01*
X129623548Y-117562005D01*
X129629449Y-117565412D01*
X129645737Y-117576607D01*
X129656161Y-117585048D01*
X129715366Y-117615214D01*
X129721119Y-117618337D01*
X129778669Y-117651564D01*
X129784953Y-117653606D01*
X129784958Y-117653608D01*
X129791421Y-117655708D01*
X129809683Y-117663272D01*
X129815749Y-117666363D01*
X129815758Y-117666366D01*
X129821637Y-117669362D01*
X129828015Y-117671071D01*
X129885804Y-117686556D01*
X129892106Y-117688422D01*
X129955298Y-117708954D01*
X129968205Y-117710311D01*
X129968628Y-117710355D01*
X129988071Y-117713958D01*
X130001029Y-117717430D01*
X130007619Y-117717775D01*
X130007623Y-117717776D01*
X130051573Y-117720079D01*
X130067372Y-117720907D01*
X130073931Y-117721423D01*
X130093694Y-117723500D01*
X130113555Y-117723500D01*
X130120150Y-117723673D01*
X130179902Y-117726805D01*
X130179906Y-117726805D01*
X130186493Y-117727150D01*
X130199747Y-117725051D01*
X130219456Y-117723500D01*
X130990357Y-117723500D01*
X131058478Y-117743502D01*
X131085589Y-117766998D01*
X131126250Y-117813938D01*
X131298126Y-117956632D01*
X131368595Y-117997811D01*
X131371445Y-117999476D01*
X131420169Y-118051114D01*
X131433240Y-118120897D01*
X131406509Y-118186669D01*
X131366055Y-118220027D01*
X131353607Y-118226507D01*
X131349474Y-118229610D01*
X131349471Y-118229612D01*
X131179100Y-118357530D01*
X131174965Y-118360635D01*
X131020629Y-118522138D01*
X130894743Y-118706680D01*
X130800688Y-118909305D01*
X130740989Y-119124570D01*
X130717251Y-119346695D01*
X130717548Y-119351848D01*
X130717548Y-119351851D01*
X130723011Y-119446590D01*
X130730110Y-119569715D01*
X130731247Y-119574761D01*
X130731248Y-119574767D01*
X130744110Y-119631836D01*
X130779222Y-119787639D01*
X130863266Y-119994616D01*
X130914019Y-120077438D01*
X130977291Y-120180688D01*
X130979987Y-120185088D01*
X131126250Y-120353938D01*
X131298126Y-120496632D01*
X131491000Y-120609338D01*
X131699692Y-120689030D01*
X131704760Y-120690061D01*
X131704763Y-120690062D01*
X131796304Y-120708686D01*
X131918597Y-120733567D01*
X131923772Y-120733757D01*
X131923774Y-120733757D01*
X132136673Y-120741564D01*
X132136677Y-120741564D01*
X132141837Y-120741753D01*
X132146957Y-120741097D01*
X132146959Y-120741097D01*
X132358288Y-120714025D01*
X132358289Y-120714025D01*
X132363416Y-120713368D01*
X132392728Y-120704574D01*
X132572429Y-120650661D01*
X132572434Y-120650659D01*
X132577384Y-120649174D01*
X132777994Y-120550896D01*
X132959860Y-120421173D01*
X132966855Y-120414203D01*
X133114435Y-120267137D01*
X133118096Y-120263489D01*
X133177594Y-120180689D01*
X133245435Y-120086277D01*
X133248453Y-120082077D01*
X133269320Y-120039857D01*
X133345136Y-119886453D01*
X133345137Y-119886451D01*
X133347430Y-119881811D01*
X133412370Y-119668069D01*
X133441529Y-119446590D01*
X133443156Y-119380000D01*
X133424852Y-119157361D01*
X133370431Y-118940702D01*
X133281354Y-118735840D01*
X133160014Y-118548277D01*
X133009670Y-118383051D01*
X133005619Y-118379852D01*
X133005615Y-118379848D01*
X132838414Y-118247800D01*
X132838410Y-118247798D01*
X132834359Y-118244598D01*
X132793053Y-118221796D01*
X132743084Y-118171364D01*
X132728312Y-118101921D01*
X132753428Y-118035516D01*
X132780780Y-118008909D01*
X132824603Y-117977650D01*
X132959860Y-117881173D01*
X133081208Y-117760249D01*
X133143579Y-117726333D01*
X133170147Y-117723500D01*
X138610357Y-117723500D01*
X138678478Y-117743502D01*
X138705589Y-117766998D01*
X138746250Y-117813938D01*
X138918126Y-117956632D01*
X138988595Y-117997811D01*
X138991445Y-117999476D01*
X139040169Y-118051114D01*
X139053240Y-118120897D01*
X139026509Y-118186669D01*
X138986055Y-118220027D01*
X138973607Y-118226507D01*
X138969474Y-118229610D01*
X138969471Y-118229612D01*
X138799100Y-118357530D01*
X138794965Y-118360635D01*
X138640629Y-118522138D01*
X138514743Y-118706680D01*
X138420688Y-118909305D01*
X138360989Y-119124570D01*
X138337251Y-119346695D01*
X138337548Y-119351848D01*
X138337548Y-119351851D01*
X138343011Y-119446590D01*
X138350110Y-119569715D01*
X138351247Y-119574761D01*
X138351248Y-119574767D01*
X138364110Y-119631836D01*
X138399222Y-119787639D01*
X138483266Y-119994616D01*
X138534019Y-120077438D01*
X138597291Y-120180688D01*
X138599987Y-120185088D01*
X138746250Y-120353938D01*
X138918126Y-120496632D01*
X139111000Y-120609338D01*
X139319692Y-120689030D01*
X139324760Y-120690061D01*
X139324763Y-120690062D01*
X139416304Y-120708686D01*
X139538597Y-120733567D01*
X139543772Y-120733757D01*
X139543774Y-120733757D01*
X139756673Y-120741564D01*
X139756677Y-120741564D01*
X139761837Y-120741753D01*
X139766957Y-120741097D01*
X139766959Y-120741097D01*
X139978288Y-120714025D01*
X139978289Y-120714025D01*
X139983416Y-120713368D01*
X140012728Y-120704574D01*
X140192429Y-120650661D01*
X140192434Y-120650659D01*
X140197384Y-120649174D01*
X140397994Y-120550896D01*
X140579860Y-120421173D01*
X140586855Y-120414203D01*
X140734435Y-120267137D01*
X140738096Y-120263489D01*
X140797594Y-120180689D01*
X140865435Y-120086277D01*
X140868453Y-120082077D01*
X140889320Y-120039857D01*
X140965136Y-119886453D01*
X140965137Y-119886451D01*
X140967430Y-119881811D01*
X141032370Y-119668069D01*
X141061529Y-119446590D01*
X141063156Y-119380000D01*
X141044852Y-119157361D01*
X140990431Y-118940702D01*
X140901354Y-118735840D01*
X140780014Y-118548277D01*
X140629670Y-118383051D01*
X140625619Y-118379852D01*
X140625615Y-118379848D01*
X140458414Y-118247800D01*
X140458410Y-118247798D01*
X140454359Y-118244598D01*
X140413053Y-118221796D01*
X140363084Y-118171364D01*
X140348312Y-118101921D01*
X140373428Y-118035516D01*
X140400780Y-118008909D01*
X140444603Y-117977650D01*
X140579860Y-117881173D01*
X140738096Y-117723489D01*
X140748541Y-117708954D01*
X140865435Y-117546277D01*
X140868453Y-117542077D01*
X140882205Y-117514253D01*
X140965136Y-117346453D01*
X140965137Y-117346451D01*
X140967430Y-117341811D01*
X141032370Y-117128069D01*
X141061529Y-116906590D01*
X141061611Y-116903240D01*
X141063074Y-116843365D01*
X141063074Y-116843361D01*
X141063156Y-116840000D01*
X141044852Y-116617361D01*
X140990431Y-116400702D01*
X140942296Y-116290000D01*
X148229406Y-116290000D01*
X148249742Y-116522444D01*
X148251166Y-116527757D01*
X148251166Y-116527759D01*
X148291412Y-116677957D01*
X148310133Y-116747826D01*
X148312455Y-116752806D01*
X148312456Y-116752808D01*
X148406418Y-116954310D01*
X148406421Y-116954315D01*
X148408744Y-116959297D01*
X148542578Y-117150432D01*
X148707568Y-117315422D01*
X148712076Y-117318579D01*
X148712079Y-117318581D01*
X148869894Y-117429084D01*
X148898703Y-117449256D01*
X148903685Y-117451579D01*
X148903690Y-117451582D01*
X149087809Y-117537438D01*
X149110174Y-117547867D01*
X149115482Y-117549289D01*
X149115484Y-117549290D01*
X149330241Y-117606834D01*
X149330243Y-117606834D01*
X149335556Y-117608258D01*
X149568000Y-117628594D01*
X149800444Y-117608258D01*
X149805757Y-117606834D01*
X149805759Y-117606834D01*
X150020516Y-117549290D01*
X150020518Y-117549289D01*
X150025826Y-117547867D01*
X150048191Y-117537438D01*
X150232310Y-117451582D01*
X150232315Y-117451579D01*
X150237297Y-117449256D01*
X150266106Y-117429084D01*
X150423921Y-117318581D01*
X150423924Y-117318579D01*
X150428432Y-117315422D01*
X150593422Y-117150432D01*
X150727256Y-116959297D01*
X150729579Y-116954315D01*
X150729582Y-116954310D01*
X150823544Y-116752808D01*
X150823545Y-116752806D01*
X150825867Y-116747826D01*
X150844589Y-116677957D01*
X150884834Y-116527759D01*
X150884834Y-116527757D01*
X150886258Y-116522444D01*
X150906594Y-116290000D01*
X150886258Y-116057556D01*
X150853821Y-115936498D01*
X150827290Y-115837484D01*
X150827289Y-115837482D01*
X150825867Y-115832174D01*
X150769896Y-115712144D01*
X150729582Y-115625690D01*
X150729579Y-115625685D01*
X150727256Y-115620703D01*
X150715398Y-115603768D01*
X150596581Y-115434079D01*
X150596579Y-115434076D01*
X150593422Y-115429568D01*
X150428432Y-115264578D01*
X150423924Y-115261421D01*
X150423921Y-115261419D01*
X150241806Y-115133901D01*
X150241804Y-115133900D01*
X150237297Y-115130744D01*
X150232315Y-115128421D01*
X150232310Y-115128418D01*
X150030808Y-115034456D01*
X150030806Y-115034455D01*
X150025826Y-115032133D01*
X150020518Y-115030711D01*
X150020516Y-115030710D01*
X149805759Y-114973166D01*
X149805757Y-114973166D01*
X149800444Y-114971742D01*
X149568000Y-114951406D01*
X149335556Y-114971742D01*
X149330243Y-114973166D01*
X149330241Y-114973166D01*
X149115484Y-115030710D01*
X149115482Y-115030711D01*
X149110174Y-115032133D01*
X149105194Y-115034455D01*
X149105192Y-115034456D01*
X148903690Y-115128418D01*
X148903685Y-115128421D01*
X148898703Y-115130744D01*
X148894196Y-115133900D01*
X148894194Y-115133901D01*
X148712079Y-115261419D01*
X148712076Y-115261421D01*
X148707568Y-115264578D01*
X148542578Y-115429568D01*
X148539421Y-115434076D01*
X148539419Y-115434079D01*
X148420602Y-115603768D01*
X148408744Y-115620703D01*
X148406421Y-115625685D01*
X148406418Y-115625690D01*
X148366104Y-115712144D01*
X148310133Y-115832174D01*
X148308711Y-115837482D01*
X148308710Y-115837484D01*
X148282179Y-115936498D01*
X148249742Y-116057556D01*
X148229406Y-116290000D01*
X140942296Y-116290000D01*
X140901354Y-116195840D01*
X140780014Y-116008277D01*
X140729699Y-115952981D01*
X140632798Y-115846488D01*
X140601746Y-115782642D01*
X140610141Y-115712143D01*
X140655317Y-115657375D01*
X140681761Y-115643706D01*
X140788297Y-115603767D01*
X140796705Y-115600615D01*
X140913261Y-115513261D01*
X141000615Y-115396705D01*
X141051745Y-115260316D01*
X141058500Y-115198134D01*
X141058500Y-113401866D01*
X141051745Y-113339684D01*
X141000615Y-113203295D01*
X140913261Y-113086739D01*
X140796705Y-112999385D01*
X140660316Y-112948255D01*
X140598134Y-112941500D01*
X138801866Y-112941500D01*
X138739684Y-112948255D01*
X138603295Y-112999385D01*
X138486739Y-113086739D01*
X138399385Y-113203295D01*
X138348255Y-113339684D01*
X138341500Y-113401866D01*
X138341500Y-115198134D01*
X138348255Y-115260316D01*
X138399385Y-115396705D01*
X138486739Y-115513261D01*
X138603295Y-115600615D01*
X138611704Y-115603767D01*
X138611705Y-115603768D01*
X138720451Y-115644535D01*
X138777216Y-115687176D01*
X138801916Y-115753738D01*
X138786709Y-115823087D01*
X138767316Y-115849568D01*
X138702350Y-115917551D01*
X138640826Y-115952981D01*
X138611256Y-115956500D01*
X133168605Y-115956500D01*
X133100484Y-115936498D01*
X133075412Y-115915300D01*
X133053100Y-115890779D01*
X133012796Y-115846487D01*
X132981745Y-115782643D01*
X132990139Y-115712144D01*
X133035316Y-115657375D01*
X133061760Y-115643706D01*
X133168297Y-115603767D01*
X133176705Y-115600615D01*
X133293261Y-115513261D01*
X133380615Y-115396705D01*
X133431745Y-115260316D01*
X133438500Y-115198134D01*
X133438500Y-113401866D01*
X133431745Y-113339684D01*
X133380615Y-113203295D01*
X133293261Y-113086739D01*
X133176705Y-112999385D01*
X133040316Y-112948255D01*
X132978134Y-112941500D01*
X131181866Y-112941500D01*
X131119684Y-112948255D01*
X130983295Y-112999385D01*
X130866739Y-113086739D01*
X130779385Y-113203295D01*
X130728255Y-113339684D01*
X130721500Y-113401866D01*
X130721500Y-115198134D01*
X130728255Y-115260316D01*
X130779385Y-115396705D01*
X130866739Y-115513261D01*
X130983295Y-115600615D01*
X130991704Y-115603767D01*
X130991705Y-115603768D01*
X131100451Y-115644535D01*
X131157216Y-115687176D01*
X131181916Y-115753738D01*
X131166709Y-115823087D01*
X131147316Y-115849568D01*
X131082350Y-115917551D01*
X131020826Y-115952981D01*
X130991256Y-115956500D01*
X130558148Y-115956500D01*
X130490027Y-115936498D01*
X130469052Y-115919595D01*
X130420404Y-115870946D01*
X130386379Y-115808633D01*
X130383500Y-115781851D01*
X130383500Y-111618149D01*
X130403502Y-111550028D01*
X130420404Y-111529054D01*
X130629052Y-111320405D01*
X130691364Y-111286380D01*
X130718148Y-111283500D01*
X131655357Y-111283500D01*
X131723478Y-111303502D01*
X131750589Y-111326998D01*
X131791250Y-111373938D01*
X131963126Y-111516632D01*
X132156000Y-111629338D01*
X132364692Y-111709030D01*
X132369760Y-111710061D01*
X132369763Y-111710062D01*
X132464862Y-111729410D01*
X132583597Y-111753567D01*
X132588772Y-111753757D01*
X132588774Y-111753757D01*
X132801673Y-111761564D01*
X132801677Y-111761564D01*
X132806837Y-111761753D01*
X132811957Y-111761097D01*
X132811959Y-111761097D01*
X133023288Y-111734025D01*
X133023289Y-111734025D01*
X133028416Y-111733368D01*
X133033366Y-111731883D01*
X133237429Y-111670661D01*
X133237434Y-111670659D01*
X133242384Y-111669174D01*
X133442994Y-111570896D01*
X133624860Y-111441173D01*
X133783096Y-111283489D01*
X133800159Y-111259744D01*
X133913453Y-111102077D01*
X133914640Y-111102930D01*
X133961960Y-111059362D01*
X134031897Y-111047145D01*
X134097338Y-111074678D01*
X134125166Y-111106511D01*
X134182694Y-111200388D01*
X134188777Y-111208699D01*
X134328213Y-111369667D01*
X134335580Y-111376883D01*
X134499434Y-111512916D01*
X134507881Y-111518831D01*
X134691756Y-111626279D01*
X134701042Y-111630729D01*
X134900001Y-111706703D01*
X134909899Y-111709579D01*
X135013250Y-111730606D01*
X135027299Y-111729410D01*
X135031000Y-111719065D01*
X135031000Y-111718517D01*
X135539000Y-111718517D01*
X135543064Y-111732359D01*
X135556478Y-111734393D01*
X135563184Y-111733534D01*
X135573262Y-111731392D01*
X135777255Y-111670191D01*
X135786842Y-111666433D01*
X135978095Y-111572739D01*
X135986945Y-111567464D01*
X136160328Y-111443792D01*
X136168193Y-111437145D01*
X136272897Y-111332805D01*
X136335268Y-111298889D01*
X136406075Y-111304077D01*
X136462837Y-111346723D01*
X136479819Y-111377826D01*
X136524385Y-111496705D01*
X136611739Y-111613261D01*
X136728295Y-111700615D01*
X136864684Y-111751745D01*
X136926866Y-111758500D01*
X138723134Y-111758500D01*
X138785316Y-111751745D01*
X138921705Y-111700615D01*
X139038261Y-111613261D01*
X139125615Y-111496705D01*
X139176745Y-111360316D01*
X139183500Y-111298134D01*
X139183500Y-110318148D01*
X139203502Y-110250027D01*
X139220405Y-110229053D01*
X140029053Y-109420405D01*
X140091365Y-109386379D01*
X140118148Y-109383500D01*
X156681852Y-109383500D01*
X156749973Y-109403502D01*
X156770947Y-109420405D01*
X160369595Y-113019053D01*
X160403621Y-113081365D01*
X160406500Y-113108148D01*
X160406500Y-118287576D01*
X160386498Y-118355697D01*
X160371594Y-118374627D01*
X160230629Y-118522138D01*
X160123201Y-118679621D01*
X160068293Y-118724621D01*
X159997768Y-118732792D01*
X159934021Y-118701538D01*
X159913324Y-118677054D01*
X159832822Y-118552617D01*
X159832820Y-118552614D01*
X159830014Y-118548277D01*
X159679670Y-118383051D01*
X159675619Y-118379852D01*
X159675615Y-118379848D01*
X159508414Y-118247800D01*
X159508410Y-118247798D01*
X159504359Y-118244598D01*
X159308789Y-118136638D01*
X159303920Y-118134914D01*
X159303916Y-118134912D01*
X159103087Y-118063795D01*
X159103083Y-118063794D01*
X159098212Y-118062069D01*
X159093119Y-118061162D01*
X159093116Y-118061161D01*
X158883373Y-118023800D01*
X158883367Y-118023799D01*
X158878284Y-118022894D01*
X158804452Y-118021992D01*
X158660081Y-118020228D01*
X158660079Y-118020228D01*
X158654911Y-118020165D01*
X158434091Y-118053955D01*
X158221756Y-118123357D01*
X158023607Y-118226507D01*
X158019474Y-118229610D01*
X158019471Y-118229612D01*
X157849100Y-118357530D01*
X157844965Y-118360635D01*
X157690629Y-118522138D01*
X157583201Y-118679621D01*
X157528293Y-118724621D01*
X157457768Y-118732792D01*
X157394021Y-118701538D01*
X157373324Y-118677054D01*
X157292822Y-118552617D01*
X157292820Y-118552614D01*
X157290014Y-118548277D01*
X157139670Y-118383051D01*
X157135619Y-118379852D01*
X157135615Y-118379848D01*
X156968414Y-118247800D01*
X156968410Y-118247798D01*
X156964359Y-118244598D01*
X156768789Y-118136638D01*
X156763920Y-118134914D01*
X156763916Y-118134912D01*
X156563087Y-118063795D01*
X156563083Y-118063794D01*
X156558212Y-118062069D01*
X156553119Y-118061162D01*
X156553116Y-118061161D01*
X156343373Y-118023800D01*
X156343367Y-118023799D01*
X156338284Y-118022894D01*
X156264452Y-118021992D01*
X156120081Y-118020228D01*
X156120079Y-118020228D01*
X156114911Y-118020165D01*
X155894091Y-118053955D01*
X155681756Y-118123357D01*
X155483607Y-118226507D01*
X155479474Y-118229610D01*
X155479471Y-118229612D01*
X155309100Y-118357530D01*
X155304965Y-118360635D01*
X155279891Y-118386874D01*
X155212350Y-118457551D01*
X155150826Y-118492981D01*
X155121256Y-118496500D01*
X154758605Y-118496500D01*
X154690484Y-118476498D01*
X154665412Y-118455300D01*
X154603149Y-118386874D01*
X154603145Y-118386870D01*
X154599670Y-118383051D01*
X154595613Y-118379847D01*
X154593569Y-118377941D01*
X154557389Y-118316855D01*
X154553500Y-118285790D01*
X154553500Y-113861000D01*
X154557328Y-113831927D01*
X154558096Y-113829926D01*
X154587149Y-113646493D01*
X154577429Y-113461029D01*
X154562493Y-113405283D01*
X154531070Y-113288010D01*
X154531069Y-113288007D01*
X154529362Y-113281637D01*
X154445047Y-113116161D01*
X154357472Y-113008014D01*
X152070912Y-110721454D01*
X152058075Y-110706426D01*
X152050185Y-110695566D01*
X152000816Y-110651114D01*
X151996031Y-110646573D01*
X151981986Y-110632528D01*
X151976965Y-110628462D01*
X151966554Y-110620031D01*
X151961538Y-110615747D01*
X151917080Y-110575717D01*
X151917075Y-110575713D01*
X151912169Y-110571296D01*
X151900552Y-110564589D01*
X151884259Y-110553391D01*
X151878971Y-110549109D01*
X151873839Y-110544953D01*
X151814637Y-110514787D01*
X151808867Y-110511654D01*
X151757055Y-110481740D01*
X151757050Y-110481738D01*
X151751331Y-110478436D01*
X151745051Y-110476395D01*
X151745043Y-110476392D01*
X151738579Y-110474292D01*
X151720317Y-110466728D01*
X151714251Y-110463637D01*
X151714242Y-110463634D01*
X151708363Y-110460638D01*
X151697672Y-110457773D01*
X151644196Y-110443444D01*
X151637894Y-110441578D01*
X151574702Y-110421046D01*
X151561372Y-110419645D01*
X151541929Y-110416042D01*
X151528971Y-110412570D01*
X151522381Y-110412225D01*
X151522377Y-110412224D01*
X151478427Y-110409921D01*
X151462628Y-110409093D01*
X151456069Y-110408577D01*
X151436306Y-110406500D01*
X151416445Y-110406500D01*
X151409850Y-110406327D01*
X151350098Y-110403195D01*
X151350094Y-110403195D01*
X151343507Y-110402850D01*
X151330253Y-110404949D01*
X151310544Y-110406500D01*
X147122544Y-110406500D01*
X147054423Y-110386498D01*
X147033449Y-110369595D01*
X146928432Y-110264578D01*
X146923924Y-110261421D01*
X146923921Y-110261419D01*
X146741806Y-110133901D01*
X146741804Y-110133900D01*
X146737297Y-110130744D01*
X146732315Y-110128421D01*
X146732310Y-110128418D01*
X146530808Y-110034456D01*
X146530806Y-110034455D01*
X146525826Y-110032133D01*
X146520518Y-110030711D01*
X146520516Y-110030710D01*
X146305759Y-109973166D01*
X146305757Y-109973166D01*
X146300444Y-109971742D01*
X146068000Y-109951406D01*
X145835556Y-109971742D01*
X145830243Y-109973166D01*
X145830241Y-109973166D01*
X145615484Y-110030710D01*
X145615482Y-110030711D01*
X145610174Y-110032133D01*
X145605194Y-110034455D01*
X145605192Y-110034456D01*
X145403690Y-110128418D01*
X145403685Y-110128421D01*
X145398703Y-110130744D01*
X145394196Y-110133900D01*
X145394194Y-110133901D01*
X145212079Y-110261419D01*
X145212076Y-110261421D01*
X145207568Y-110264578D01*
X145042578Y-110429568D01*
X145039421Y-110434076D01*
X145039419Y-110434079D01*
X144955876Y-110553391D01*
X144908744Y-110620703D01*
X144906421Y-110625685D01*
X144906418Y-110625690D01*
X144861488Y-110722043D01*
X144810133Y-110832174D01*
X144808711Y-110837482D01*
X144808710Y-110837484D01*
X144752282Y-111048077D01*
X144749742Y-111057556D01*
X144729406Y-111290000D01*
X144749742Y-111522444D01*
X144751166Y-111527757D01*
X144751166Y-111527759D01*
X144806534Y-111734393D01*
X144810133Y-111747826D01*
X144812455Y-111752806D01*
X144812456Y-111752808D01*
X144906418Y-111954310D01*
X144906421Y-111954315D01*
X144908744Y-111959297D01*
X144911900Y-111963804D01*
X144911901Y-111963806D01*
X145035927Y-112140933D01*
X145042578Y-112150432D01*
X145207568Y-112315422D01*
X145212076Y-112318579D01*
X145212079Y-112318581D01*
X145394194Y-112446099D01*
X145398703Y-112449256D01*
X145403685Y-112451579D01*
X145403690Y-112451582D01*
X145555654Y-112522444D01*
X145610174Y-112547867D01*
X145615482Y-112549289D01*
X145615484Y-112549290D01*
X145830241Y-112606834D01*
X145830243Y-112606834D01*
X145835556Y-112608258D01*
X146068000Y-112628594D01*
X146300444Y-112608258D01*
X146305757Y-112606834D01*
X146305759Y-112606834D01*
X146520516Y-112549290D01*
X146520518Y-112549289D01*
X146525826Y-112547867D01*
X146580346Y-112522444D01*
X146732310Y-112451582D01*
X146732315Y-112451579D01*
X146737297Y-112449256D01*
X146741806Y-112446099D01*
X146923921Y-112318581D01*
X146923924Y-112318579D01*
X146928432Y-112315422D01*
X147033449Y-112210405D01*
X147095761Y-112176379D01*
X147122544Y-112173500D01*
X150971852Y-112173500D01*
X151039973Y-112193502D01*
X151060947Y-112210405D01*
X152749595Y-113899053D01*
X152783621Y-113961365D01*
X152786500Y-113988148D01*
X152786500Y-118287576D01*
X152766498Y-118355697D01*
X152751594Y-118374627D01*
X152610629Y-118522138D01*
X152484743Y-118706680D01*
X152390688Y-118909305D01*
X152330989Y-119124570D01*
X152307251Y-119346695D01*
X152307548Y-119351848D01*
X152307548Y-119351851D01*
X152313011Y-119446590D01*
X152320110Y-119569715D01*
X152321247Y-119574761D01*
X152321248Y-119574767D01*
X152334110Y-119631836D01*
X152369222Y-119787639D01*
X152453266Y-119994616D01*
X152504019Y-120077438D01*
X152567291Y-120180688D01*
X152569987Y-120185088D01*
X152716250Y-120353938D01*
X152888126Y-120496632D01*
X153081000Y-120609338D01*
X153289692Y-120689030D01*
X153294760Y-120690061D01*
X153294763Y-120690062D01*
X153386304Y-120708686D01*
X153508597Y-120733567D01*
X153513772Y-120733757D01*
X153513774Y-120733757D01*
X153726673Y-120741564D01*
X153726677Y-120741564D01*
X153731837Y-120741753D01*
X153736957Y-120741097D01*
X153736959Y-120741097D01*
X153948288Y-120714025D01*
X153948289Y-120714025D01*
X153953416Y-120713368D01*
X153982728Y-120704574D01*
X154162429Y-120650661D01*
X154162434Y-120650659D01*
X154167384Y-120649174D01*
X154367994Y-120550896D01*
X154549860Y-120421173D01*
X154671208Y-120300249D01*
X154733579Y-120266333D01*
X154760147Y-120263500D01*
X155120357Y-120263500D01*
X155188478Y-120283502D01*
X155215589Y-120306998D01*
X155256250Y-120353938D01*
X155428126Y-120496632D01*
X155621000Y-120609338D01*
X155829692Y-120689030D01*
X155834760Y-120690061D01*
X155834763Y-120690062D01*
X155926304Y-120708686D01*
X156048597Y-120733567D01*
X156053772Y-120733757D01*
X156053774Y-120733757D01*
X156266673Y-120741564D01*
X156266677Y-120741564D01*
X156271837Y-120741753D01*
X156276957Y-120741097D01*
X156276959Y-120741097D01*
X156488288Y-120714025D01*
X156488289Y-120714025D01*
X156493416Y-120713368D01*
X156522728Y-120704574D01*
X156702429Y-120650661D01*
X156702434Y-120650659D01*
X156707384Y-120649174D01*
X156907994Y-120550896D01*
X157089860Y-120421173D01*
X157096855Y-120414203D01*
X157244435Y-120267137D01*
X157248096Y-120263489D01*
X157307594Y-120180689D01*
X157378453Y-120082077D01*
X157379776Y-120083028D01*
X157426645Y-120039857D01*
X157496580Y-120027625D01*
X157562026Y-120055144D01*
X157589875Y-120086994D01*
X157649987Y-120185088D01*
X157796250Y-120353938D01*
X157968126Y-120496632D01*
X158161000Y-120609338D01*
X158369692Y-120689030D01*
X158374760Y-120690061D01*
X158374763Y-120690062D01*
X158466304Y-120708686D01*
X158588597Y-120733567D01*
X158593772Y-120733757D01*
X158593774Y-120733757D01*
X158806673Y-120741564D01*
X158806677Y-120741564D01*
X158811837Y-120741753D01*
X158816957Y-120741097D01*
X158816959Y-120741097D01*
X159028288Y-120714025D01*
X159028289Y-120714025D01*
X159033416Y-120713368D01*
X159062728Y-120704574D01*
X159242429Y-120650661D01*
X159242434Y-120650659D01*
X159247384Y-120649174D01*
X159447994Y-120550896D01*
X159629860Y-120421173D01*
X159636855Y-120414203D01*
X159784435Y-120267137D01*
X159788096Y-120263489D01*
X159847594Y-120180689D01*
X159918453Y-120082077D01*
X159919776Y-120083028D01*
X159966645Y-120039857D01*
X160036580Y-120027625D01*
X160102026Y-120055144D01*
X160129875Y-120086994D01*
X160189987Y-120185088D01*
X160336250Y-120353938D01*
X160508126Y-120496632D01*
X160701000Y-120609338D01*
X160909692Y-120689030D01*
X160914760Y-120690061D01*
X160914763Y-120690062D01*
X161006304Y-120708686D01*
X161128597Y-120733567D01*
X161133772Y-120733757D01*
X161133774Y-120733757D01*
X161346673Y-120741564D01*
X161346677Y-120741564D01*
X161351837Y-120741753D01*
X161356957Y-120741097D01*
X161356959Y-120741097D01*
X161568288Y-120714025D01*
X161568289Y-120714025D01*
X161573416Y-120713368D01*
X161602728Y-120704574D01*
X161782429Y-120650661D01*
X161782434Y-120650659D01*
X161787384Y-120649174D01*
X161987994Y-120550896D01*
X162169860Y-120421173D01*
X162176855Y-120414203D01*
X162324435Y-120267137D01*
X162328096Y-120263489D01*
X162387594Y-120180689D01*
X162455435Y-120086277D01*
X162458453Y-120082077D01*
X162479320Y-120039857D01*
X162555136Y-119886453D01*
X162555137Y-119886451D01*
X162557430Y-119881811D01*
X162622370Y-119668069D01*
X162651529Y-119446590D01*
X162653156Y-119380000D01*
X162634852Y-119157361D01*
X162580431Y-118940702D01*
X162491354Y-118735840D01*
X162370014Y-118548277D01*
X162287460Y-118457551D01*
X162223146Y-118386871D01*
X162223145Y-118386870D01*
X162219670Y-118383051D01*
X162215612Y-118379846D01*
X162213572Y-118377944D01*
X162177391Y-118316859D01*
X162173500Y-118285790D01*
X162173500Y-112869290D01*
X162175051Y-112849582D01*
X162175722Y-112845345D01*
X162177430Y-112838971D01*
X162179521Y-112799075D01*
X162180899Y-112785960D01*
X162186118Y-112753009D01*
X162187150Y-112746493D01*
X162186805Y-112739906D01*
X162186805Y-112739901D01*
X162185059Y-112706594D01*
X162185059Y-112693406D01*
X162186805Y-112660100D01*
X162186805Y-112660094D01*
X162187150Y-112653507D01*
X162180899Y-112614036D01*
X162179521Y-112600924D01*
X162177776Y-112567631D01*
X162177430Y-112561029D01*
X162167087Y-112522428D01*
X162164348Y-112509542D01*
X162159130Y-112476594D01*
X162159129Y-112476591D01*
X162158097Y-112470074D01*
X162155732Y-112463913D01*
X162155731Y-112463909D01*
X162143780Y-112432777D01*
X162139704Y-112420234D01*
X162131070Y-112388011D01*
X162131070Y-112388010D01*
X162129362Y-112381637D01*
X162111223Y-112346037D01*
X162105859Y-112333989D01*
X162093908Y-112302856D01*
X162091541Y-112296690D01*
X162069777Y-112263176D01*
X162063184Y-112251756D01*
X162048045Y-112222045D01*
X162045047Y-112216161D01*
X162019904Y-112185111D01*
X162012156Y-112174448D01*
X162011541Y-112173500D01*
X161990391Y-112140933D01*
X157780912Y-107931454D01*
X157768075Y-107916426D01*
X157760185Y-107905566D01*
X157710816Y-107861114D01*
X157706031Y-107856573D01*
X157691986Y-107842528D01*
X157689409Y-107840441D01*
X157676554Y-107830031D01*
X157671538Y-107825747D01*
X157627080Y-107785717D01*
X157627075Y-107785713D01*
X157622169Y-107781296D01*
X157610552Y-107774589D01*
X157594259Y-107763391D01*
X157588971Y-107759109D01*
X157583839Y-107754953D01*
X157524637Y-107724787D01*
X157518867Y-107721654D01*
X157467055Y-107691740D01*
X157467050Y-107691738D01*
X157461331Y-107688436D01*
X157455051Y-107686395D01*
X157455043Y-107686392D01*
X157448579Y-107684292D01*
X157430317Y-107676728D01*
X157424251Y-107673637D01*
X157424242Y-107673634D01*
X157418363Y-107670638D01*
X157407672Y-107667773D01*
X157354196Y-107653444D01*
X157347894Y-107651578D01*
X157284702Y-107631046D01*
X157271372Y-107629645D01*
X157251929Y-107626042D01*
X157238971Y-107622570D01*
X157232381Y-107622225D01*
X157232377Y-107622224D01*
X157188427Y-107619921D01*
X157172628Y-107619093D01*
X157166069Y-107618577D01*
X157146306Y-107616500D01*
X157126445Y-107616500D01*
X157119850Y-107616327D01*
X157060098Y-107613195D01*
X157060094Y-107613195D01*
X157053507Y-107612850D01*
X157040253Y-107614949D01*
X157020544Y-107616500D01*
X139779450Y-107616500D01*
X139759739Y-107614949D01*
X139753009Y-107613883D01*
X139746493Y-107612851D01*
X139739906Y-107613196D01*
X139739901Y-107613196D01*
X139680168Y-107616327D01*
X139673574Y-107616500D01*
X139653694Y-107616500D01*
X139650420Y-107616844D01*
X139650421Y-107616844D01*
X139633920Y-107618578D01*
X139627346Y-107619095D01*
X139567627Y-107622225D01*
X139567626Y-107622225D01*
X139561028Y-107622571D01*
X139554646Y-107624281D01*
X139554639Y-107624282D01*
X139548069Y-107626042D01*
X139528635Y-107629644D01*
X139521870Y-107630355D01*
X139521869Y-107630355D01*
X139515298Y-107631046D01*
X139452122Y-107651573D01*
X139445803Y-107653445D01*
X139388013Y-107668929D01*
X139388008Y-107668931D01*
X139381637Y-107670638D01*
X139375756Y-107673634D01*
X139375752Y-107673636D01*
X139369683Y-107676728D01*
X139351421Y-107684292D01*
X139344949Y-107686395D01*
X139344945Y-107686397D01*
X139338669Y-107688436D01*
X139332953Y-107691736D01*
X139332951Y-107691737D01*
X139281135Y-107721653D01*
X139275351Y-107724794D01*
X139216160Y-107754953D01*
X139211029Y-107759108D01*
X139205737Y-107763393D01*
X139189451Y-107774587D01*
X139177831Y-107781296D01*
X139172923Y-107785715D01*
X139172919Y-107785718D01*
X139128464Y-107825745D01*
X139123458Y-107830021D01*
X139108014Y-107842528D01*
X139093969Y-107856573D01*
X139089184Y-107861114D01*
X139039815Y-107905566D01*
X139031925Y-107916426D01*
X139019088Y-107931454D01*
X137945947Y-109004595D01*
X137883635Y-109038621D01*
X137856852Y-109041500D01*
X136926866Y-109041500D01*
X136864684Y-109048255D01*
X136728295Y-109099385D01*
X136611739Y-109186739D01*
X136524385Y-109303295D01*
X136521233Y-109311704D01*
X136521232Y-109311705D01*
X136479722Y-109422433D01*
X136437081Y-109479198D01*
X136370519Y-109503898D01*
X136301170Y-109488691D01*
X136268546Y-109463004D01*
X136217799Y-109407234D01*
X136210273Y-109400215D01*
X136043139Y-109268222D01*
X136034552Y-109262517D01*
X135848117Y-109159599D01*
X135838705Y-109155369D01*
X135637959Y-109084280D01*
X135627988Y-109081646D01*
X135556837Y-109068972D01*
X135543540Y-109070432D01*
X135539000Y-109084989D01*
X135539000Y-111718517D01*
X135031000Y-111718517D01*
X135031000Y-109083102D01*
X135027082Y-109069758D01*
X135012806Y-109067771D01*
X134974324Y-109073660D01*
X134964288Y-109076051D01*
X134761868Y-109142212D01*
X134752359Y-109146209D01*
X134563463Y-109244542D01*
X134554738Y-109250036D01*
X134384433Y-109377905D01*
X134376726Y-109384748D01*
X134229590Y-109538717D01*
X134223109Y-109546722D01*
X134118498Y-109700074D01*
X134063587Y-109745076D01*
X133993062Y-109753247D01*
X133929315Y-109721993D01*
X133908618Y-109697509D01*
X133827822Y-109572617D01*
X133827820Y-109572614D01*
X133825014Y-109568277D01*
X133674670Y-109403051D01*
X133670619Y-109399852D01*
X133670615Y-109399848D01*
X133503414Y-109267800D01*
X133503410Y-109267798D01*
X133499359Y-109264598D01*
X133463028Y-109244542D01*
X133447136Y-109235769D01*
X133303789Y-109156638D01*
X133298920Y-109154914D01*
X133298916Y-109154912D01*
X133098087Y-109083795D01*
X133098083Y-109083794D01*
X133093212Y-109082069D01*
X133088119Y-109081162D01*
X133088116Y-109081161D01*
X132878373Y-109043800D01*
X132878367Y-109043799D01*
X132873284Y-109042894D01*
X132799452Y-109041992D01*
X132655081Y-109040228D01*
X132655079Y-109040228D01*
X132649911Y-109040165D01*
X132429091Y-109073955D01*
X132216756Y-109143357D01*
X132018607Y-109246507D01*
X132014474Y-109249610D01*
X132014471Y-109249612D01*
X131990247Y-109267800D01*
X131839965Y-109380635D01*
X131783537Y-109439684D01*
X131747350Y-109477551D01*
X131685826Y-109512981D01*
X131656256Y-109516500D01*
X130379457Y-109516500D01*
X130359745Y-109514949D01*
X130353008Y-109513882D01*
X130353009Y-109513882D01*
X130346493Y-109512850D01*
X130339906Y-109513195D01*
X130339902Y-109513195D01*
X130280150Y-109516327D01*
X130273555Y-109516500D01*
X130253694Y-109516500D01*
X130233931Y-109518577D01*
X130227372Y-109519093D01*
X130211573Y-109519921D01*
X130167623Y-109522224D01*
X130167619Y-109522225D01*
X130161029Y-109522570D01*
X130148071Y-109526042D01*
X130128628Y-109529645D01*
X130115298Y-109531046D01*
X130052106Y-109551578D01*
X130045804Y-109553444D01*
X130004704Y-109564457D01*
X129981637Y-109570638D01*
X129975758Y-109573634D01*
X129975749Y-109573637D01*
X129969683Y-109576728D01*
X129951421Y-109584292D01*
X129944957Y-109586392D01*
X129944949Y-109586395D01*
X129938669Y-109588436D01*
X129932950Y-109591738D01*
X129932945Y-109591740D01*
X129881133Y-109621654D01*
X129875363Y-109624787D01*
X129816161Y-109654953D01*
X129806309Y-109662931D01*
X129805742Y-109663390D01*
X129789446Y-109674590D01*
X129783546Y-109677996D01*
X129783543Y-109677998D01*
X129777831Y-109681296D01*
X129772926Y-109685712D01*
X129772921Y-109685716D01*
X129728453Y-109725754D01*
X129723443Y-109730034D01*
X129708015Y-109742528D01*
X129693979Y-109756564D01*
X129689194Y-109761105D01*
X129639815Y-109805566D01*
X129635934Y-109810908D01*
X129631925Y-109816425D01*
X129619086Y-109831456D01*
X128931454Y-110519088D01*
X128916426Y-110531925D01*
X128905566Y-110539815D01*
X128901145Y-110544725D01*
X128901144Y-110544726D01*
X128861114Y-110589184D01*
X128856573Y-110593969D01*
X128842528Y-110608014D01*
X128840444Y-110610588D01*
X128840441Y-110610591D01*
X128830031Y-110623446D01*
X128825747Y-110628462D01*
X128785717Y-110672920D01*
X128785713Y-110672925D01*
X128781296Y-110677831D01*
X128775385Y-110688069D01*
X128774589Y-110689448D01*
X128763391Y-110705741D01*
X128754953Y-110716161D01*
X128724787Y-110775363D01*
X128721654Y-110781133D01*
X128691740Y-110832945D01*
X128691738Y-110832950D01*
X128688436Y-110838669D01*
X128686395Y-110844949D01*
X128686392Y-110844957D01*
X128684292Y-110851421D01*
X128676728Y-110869683D01*
X128673637Y-110875749D01*
X128673634Y-110875758D01*
X128670638Y-110881637D01*
X128668929Y-110888015D01*
X128653444Y-110945804D01*
X128651578Y-110952106D01*
X128631046Y-111015298D01*
X128630356Y-111021866D01*
X128629645Y-111028628D01*
X128626042Y-111048071D01*
X128622570Y-111061029D01*
X128622225Y-111067619D01*
X128622224Y-111067623D01*
X128619093Y-111127367D01*
X128618577Y-111133931D01*
X128616500Y-111153694D01*
X128616500Y-111173555D01*
X128616327Y-111180150D01*
X128612850Y-111246493D01*
X128613882Y-111253007D01*
X128614949Y-111259744D01*
X128616500Y-111279456D01*
X128616500Y-116120543D01*
X128614949Y-116140255D01*
X128612850Y-116153507D01*
X121008500Y-116153507D01*
X121008500Y-106986062D01*
X130274493Y-106986062D01*
X130283789Y-106998077D01*
X130334994Y-107033931D01*
X130344489Y-107039414D01*
X130541947Y-107131490D01*
X130552239Y-107135236D01*
X130762688Y-107191625D01*
X130773481Y-107193528D01*
X130990525Y-107212517D01*
X131001475Y-107212517D01*
X131218519Y-107193528D01*
X131229312Y-107191625D01*
X131439761Y-107135236D01*
X131450053Y-107131490D01*
X131647511Y-107039414D01*
X131657006Y-107033931D01*
X131709048Y-106997491D01*
X131717424Y-106987012D01*
X131716925Y-106986062D01*
X143574493Y-106986062D01*
X143583789Y-106998077D01*
X143634994Y-107033931D01*
X143644489Y-107039414D01*
X143841947Y-107131490D01*
X143852239Y-107135236D01*
X144062688Y-107191625D01*
X144073481Y-107193528D01*
X144290525Y-107212517D01*
X144301475Y-107212517D01*
X144518519Y-107193528D01*
X144529312Y-107191625D01*
X144739761Y-107135236D01*
X144750053Y-107131490D01*
X144947511Y-107039414D01*
X144957006Y-107033931D01*
X145009048Y-106997491D01*
X145017424Y-106987012D01*
X145010356Y-106973566D01*
X144308812Y-106272022D01*
X144294868Y-106264408D01*
X144293035Y-106264539D01*
X144286420Y-106268790D01*
X143580923Y-106974287D01*
X143574493Y-106986062D01*
X131716925Y-106986062D01*
X131710356Y-106973566D01*
X131008812Y-106272022D01*
X130994868Y-106264408D01*
X130993035Y-106264539D01*
X130986420Y-106268790D01*
X130280923Y-106974287D01*
X130274493Y-106986062D01*
X121008500Y-106986062D01*
X121008500Y-105905475D01*
X129683483Y-105905475D01*
X129702472Y-106122519D01*
X129704375Y-106133312D01*
X129760764Y-106343761D01*
X129764510Y-106354053D01*
X129856586Y-106551511D01*
X129862069Y-106561006D01*
X129898509Y-106613048D01*
X129908988Y-106621424D01*
X129922434Y-106614356D01*
X130623978Y-105912812D01*
X130630356Y-105901132D01*
X131360408Y-105901132D01*
X131360539Y-105902965D01*
X131364790Y-105909580D01*
X132070287Y-106615077D01*
X132082062Y-106621507D01*
X132094077Y-106612211D01*
X132129931Y-106561006D01*
X132135414Y-106551511D01*
X132227490Y-106354053D01*
X132231236Y-106343761D01*
X132287625Y-106133312D01*
X132289528Y-106122519D01*
X132308517Y-105905475D01*
X142983483Y-105905475D01*
X143002472Y-106122519D01*
X143004375Y-106133312D01*
X143060764Y-106343761D01*
X143064510Y-106354053D01*
X143156586Y-106551511D01*
X143162069Y-106561006D01*
X143198509Y-106613048D01*
X143208988Y-106621424D01*
X143222434Y-106614356D01*
X143923978Y-105912812D01*
X143930356Y-105901132D01*
X144660408Y-105901132D01*
X144660539Y-105902965D01*
X144664790Y-105909580D01*
X145370287Y-106615077D01*
X145382062Y-106621507D01*
X145394077Y-106612211D01*
X145429931Y-106561006D01*
X145435414Y-106551511D01*
X145527490Y-106354053D01*
X145531236Y-106343761D01*
X145587625Y-106133312D01*
X145589528Y-106122519D01*
X145608517Y-105905475D01*
X145608517Y-105894525D01*
X145589528Y-105677481D01*
X145587625Y-105666688D01*
X145531236Y-105456239D01*
X145527490Y-105445947D01*
X145435414Y-105248489D01*
X145429931Y-105238994D01*
X145393491Y-105186952D01*
X145383012Y-105178576D01*
X145369566Y-105185644D01*
X144668022Y-105887188D01*
X144660408Y-105901132D01*
X143930356Y-105901132D01*
X143931592Y-105898868D01*
X143931461Y-105897035D01*
X143927210Y-105890420D01*
X143221713Y-105184923D01*
X143209938Y-105178493D01*
X143197923Y-105187789D01*
X143162069Y-105238994D01*
X143156586Y-105248489D01*
X143064510Y-105445947D01*
X143060764Y-105456239D01*
X143004375Y-105666688D01*
X143002472Y-105677481D01*
X142983483Y-105894525D01*
X142983483Y-105905475D01*
X132308517Y-105905475D01*
X132308517Y-105894525D01*
X132289528Y-105677481D01*
X132287625Y-105666688D01*
X132231236Y-105456239D01*
X132227490Y-105445947D01*
X132135414Y-105248489D01*
X132129931Y-105238994D01*
X132093491Y-105186952D01*
X132083012Y-105178576D01*
X132069566Y-105185644D01*
X131368022Y-105887188D01*
X131360408Y-105901132D01*
X130630356Y-105901132D01*
X130631592Y-105898868D01*
X130631461Y-105897035D01*
X130627210Y-105890420D01*
X129921713Y-105184923D01*
X129909938Y-105178493D01*
X129897923Y-105187789D01*
X129862069Y-105238994D01*
X129856586Y-105248489D01*
X129764510Y-105445947D01*
X129760764Y-105456239D01*
X129704375Y-105666688D01*
X129702472Y-105677481D01*
X129683483Y-105894525D01*
X129683483Y-105905475D01*
X121008500Y-105905475D01*
X121008500Y-104812988D01*
X130274576Y-104812988D01*
X130281644Y-104826434D01*
X130983188Y-105527978D01*
X130997132Y-105535592D01*
X130998965Y-105535461D01*
X131005580Y-105531210D01*
X131711077Y-104825713D01*
X131717507Y-104813938D01*
X131716772Y-104812988D01*
X143574576Y-104812988D01*
X143581644Y-104826434D01*
X144283188Y-105527978D01*
X144297132Y-105535592D01*
X144298965Y-105535461D01*
X144305580Y-105531210D01*
X145011077Y-104825713D01*
X145017507Y-104813938D01*
X145008211Y-104801923D01*
X144957006Y-104766069D01*
X144947511Y-104760586D01*
X144750053Y-104668510D01*
X144739761Y-104664764D01*
X144529312Y-104608375D01*
X144518519Y-104606472D01*
X144301475Y-104587483D01*
X144290525Y-104587483D01*
X144073481Y-104606472D01*
X144062688Y-104608375D01*
X143852239Y-104664764D01*
X143841947Y-104668510D01*
X143644489Y-104760586D01*
X143634994Y-104766069D01*
X143582952Y-104802509D01*
X143574576Y-104812988D01*
X131716772Y-104812988D01*
X131708211Y-104801923D01*
X131657006Y-104766069D01*
X131647511Y-104760586D01*
X131450053Y-104668510D01*
X131439761Y-104664764D01*
X131229312Y-104608375D01*
X131218519Y-104606472D01*
X131001475Y-104587483D01*
X130990525Y-104587483D01*
X130773481Y-104606472D01*
X130762688Y-104608375D01*
X130552239Y-104664764D01*
X130541947Y-104668510D01*
X130344489Y-104760586D01*
X130334994Y-104766069D01*
X130282952Y-104802509D01*
X130274576Y-104812988D01*
X121008500Y-104812988D01*
X121008500Y-100900000D01*
X126182502Y-100900000D01*
X126202457Y-101128087D01*
X126261716Y-101349243D01*
X126264039Y-101354224D01*
X126264039Y-101354225D01*
X126356151Y-101551762D01*
X126356154Y-101551767D01*
X126358477Y-101556749D01*
X126489802Y-101744300D01*
X126651700Y-101906198D01*
X126656208Y-101909355D01*
X126656211Y-101909357D01*
X126734389Y-101964098D01*
X126839251Y-102037523D01*
X126844233Y-102039846D01*
X126844238Y-102039849D01*
X127041775Y-102131961D01*
X127046757Y-102134284D01*
X127052065Y-102135706D01*
X127052067Y-102135707D01*
X127262598Y-102192119D01*
X127262600Y-102192119D01*
X127267913Y-102193543D01*
X127496000Y-102213498D01*
X127724087Y-102193543D01*
X127729400Y-102192119D01*
X127729402Y-102192119D01*
X127939933Y-102135707D01*
X127939935Y-102135706D01*
X127945243Y-102134284D01*
X127950225Y-102131961D01*
X128147762Y-102039849D01*
X128147767Y-102039846D01*
X128152749Y-102037523D01*
X128257611Y-101964098D01*
X128335789Y-101909357D01*
X128335792Y-101909355D01*
X128340300Y-101906198D01*
X128502198Y-101744300D01*
X128633523Y-101556749D01*
X128635846Y-101551767D01*
X128635849Y-101551762D01*
X128727961Y-101354225D01*
X128727961Y-101354224D01*
X128730284Y-101349243D01*
X128789543Y-101128087D01*
X128809498Y-100900000D01*
X133182502Y-100900000D01*
X133202457Y-101128087D01*
X133261716Y-101349243D01*
X133264039Y-101354224D01*
X133264039Y-101354225D01*
X133356151Y-101551762D01*
X133356154Y-101551767D01*
X133358477Y-101556749D01*
X133489802Y-101744300D01*
X133651700Y-101906198D01*
X133656208Y-101909355D01*
X133656211Y-101909357D01*
X133734389Y-101964098D01*
X133839251Y-102037523D01*
X133844233Y-102039846D01*
X133844238Y-102039849D01*
X134041775Y-102131961D01*
X134046757Y-102134284D01*
X134052065Y-102135706D01*
X134052067Y-102135707D01*
X134262598Y-102192119D01*
X134262600Y-102192119D01*
X134267913Y-102193543D01*
X134496000Y-102213498D01*
X134724087Y-102193543D01*
X134729400Y-102192119D01*
X134729402Y-102192119D01*
X134939933Y-102135707D01*
X134939935Y-102135706D01*
X134945243Y-102134284D01*
X134950225Y-102131961D01*
X135147762Y-102039849D01*
X135147767Y-102039846D01*
X135152749Y-102037523D01*
X135257611Y-101964098D01*
X135335789Y-101909357D01*
X135335792Y-101909355D01*
X135340300Y-101906198D01*
X135502198Y-101744300D01*
X135633523Y-101556749D01*
X135635846Y-101551767D01*
X135635849Y-101551762D01*
X135727961Y-101354225D01*
X135727961Y-101354224D01*
X135730284Y-101349243D01*
X135789543Y-101128087D01*
X135809498Y-100900000D01*
X139482502Y-100900000D01*
X139502457Y-101128087D01*
X139561716Y-101349243D01*
X139564039Y-101354224D01*
X139564039Y-101354225D01*
X139656151Y-101551762D01*
X139656154Y-101551767D01*
X139658477Y-101556749D01*
X139789802Y-101744300D01*
X139951700Y-101906198D01*
X139956208Y-101909355D01*
X139956211Y-101909357D01*
X140034389Y-101964098D01*
X140139251Y-102037523D01*
X140144233Y-102039846D01*
X140144238Y-102039849D01*
X140341775Y-102131961D01*
X140346757Y-102134284D01*
X140352065Y-102135706D01*
X140352067Y-102135707D01*
X140562598Y-102192119D01*
X140562600Y-102192119D01*
X140567913Y-102193543D01*
X140796000Y-102213498D01*
X141024087Y-102193543D01*
X141029400Y-102192119D01*
X141029402Y-102192119D01*
X141239933Y-102135707D01*
X141239935Y-102135706D01*
X141245243Y-102134284D01*
X141250225Y-102131961D01*
X141447762Y-102039849D01*
X141447767Y-102039846D01*
X141452749Y-102037523D01*
X141557611Y-101964098D01*
X141635789Y-101909357D01*
X141635792Y-101909355D01*
X141640300Y-101906198D01*
X141802198Y-101744300D01*
X141933523Y-101556749D01*
X141935846Y-101551767D01*
X141935849Y-101551762D01*
X142027961Y-101354225D01*
X142027961Y-101354224D01*
X142030284Y-101349243D01*
X142089543Y-101128087D01*
X142109498Y-100900000D01*
X146482502Y-100900000D01*
X146502457Y-101128087D01*
X146561716Y-101349243D01*
X146564039Y-101354224D01*
X146564039Y-101354225D01*
X146656151Y-101551762D01*
X146656154Y-101551767D01*
X146658477Y-101556749D01*
X146789802Y-101744300D01*
X146951700Y-101906198D01*
X146956208Y-101909355D01*
X146956211Y-101909357D01*
X147034389Y-101964098D01*
X147139251Y-102037523D01*
X147144233Y-102039846D01*
X147144238Y-102039849D01*
X147341775Y-102131961D01*
X147346757Y-102134284D01*
X147352065Y-102135706D01*
X147352067Y-102135707D01*
X147562598Y-102192119D01*
X147562600Y-102192119D01*
X147567913Y-102193543D01*
X147796000Y-102213498D01*
X148024087Y-102193543D01*
X148029400Y-102192119D01*
X148029402Y-102192119D01*
X148239933Y-102135707D01*
X148239935Y-102135706D01*
X148245243Y-102134284D01*
X148250225Y-102131961D01*
X148447762Y-102039849D01*
X148447767Y-102039846D01*
X148452749Y-102037523D01*
X148557611Y-101964098D01*
X148635789Y-101909357D01*
X148635792Y-101909355D01*
X148640300Y-101906198D01*
X148802198Y-101744300D01*
X148933523Y-101556749D01*
X148935846Y-101551767D01*
X148935849Y-101551762D01*
X149027961Y-101354225D01*
X149027961Y-101354224D01*
X149030284Y-101349243D01*
X149089543Y-101128087D01*
X149109498Y-100900000D01*
X149089543Y-100671913D01*
X149030284Y-100450757D01*
X149027961Y-100445775D01*
X148935849Y-100248238D01*
X148935846Y-100248233D01*
X148933523Y-100243251D01*
X148802198Y-100055700D01*
X148640300Y-99893802D01*
X148635792Y-99890645D01*
X148635789Y-99890643D01*
X148557611Y-99835902D01*
X148452749Y-99762477D01*
X148447767Y-99760154D01*
X148447762Y-99760151D01*
X148250225Y-99668039D01*
X148250224Y-99668039D01*
X148245243Y-99665716D01*
X148239935Y-99664294D01*
X148239933Y-99664293D01*
X148029402Y-99607881D01*
X148029400Y-99607881D01*
X148024087Y-99606457D01*
X147796000Y-99586502D01*
X147567913Y-99606457D01*
X147562600Y-99607881D01*
X147562598Y-99607881D01*
X147352067Y-99664293D01*
X147352065Y-99664294D01*
X147346757Y-99665716D01*
X147341776Y-99668039D01*
X147341775Y-99668039D01*
X147144238Y-99760151D01*
X147144233Y-99760154D01*
X147139251Y-99762477D01*
X147034389Y-99835902D01*
X146956211Y-99890643D01*
X146956208Y-99890645D01*
X146951700Y-99893802D01*
X146789802Y-100055700D01*
X146658477Y-100243251D01*
X146656154Y-100248233D01*
X146656151Y-100248238D01*
X146564039Y-100445775D01*
X146561716Y-100450757D01*
X146502457Y-100671913D01*
X146482502Y-100900000D01*
X142109498Y-100900000D01*
X142089543Y-100671913D01*
X142030284Y-100450757D01*
X142027961Y-100445775D01*
X141935849Y-100248238D01*
X141935846Y-100248233D01*
X141933523Y-100243251D01*
X141802198Y-100055700D01*
X141640300Y-99893802D01*
X141635792Y-99890645D01*
X141635789Y-99890643D01*
X141557611Y-99835902D01*
X141452749Y-99762477D01*
X141447767Y-99760154D01*
X141447762Y-99760151D01*
X141250225Y-99668039D01*
X141250224Y-99668039D01*
X141245243Y-99665716D01*
X141239935Y-99664294D01*
X141239933Y-99664293D01*
X141029402Y-99607881D01*
X141029400Y-99607881D01*
X141024087Y-99606457D01*
X140796000Y-99586502D01*
X140567913Y-99606457D01*
X140562600Y-99607881D01*
X140562598Y-99607881D01*
X140352067Y-99664293D01*
X140352065Y-99664294D01*
X140346757Y-99665716D01*
X140341776Y-99668039D01*
X140341775Y-99668039D01*
X140144238Y-99760151D01*
X140144233Y-99760154D01*
X140139251Y-99762477D01*
X140034389Y-99835902D01*
X139956211Y-99890643D01*
X139956208Y-99890645D01*
X139951700Y-99893802D01*
X139789802Y-100055700D01*
X139658477Y-100243251D01*
X139656154Y-100248233D01*
X139656151Y-100248238D01*
X139564039Y-100445775D01*
X139561716Y-100450757D01*
X139502457Y-100671913D01*
X139482502Y-100900000D01*
X135809498Y-100900000D01*
X135789543Y-100671913D01*
X135730284Y-100450757D01*
X135727961Y-100445775D01*
X135635849Y-100248238D01*
X135635846Y-100248233D01*
X135633523Y-100243251D01*
X135502198Y-100055700D01*
X135340300Y-99893802D01*
X135335792Y-99890645D01*
X135335789Y-99890643D01*
X135257611Y-99835902D01*
X135152749Y-99762477D01*
X135147767Y-99760154D01*
X135147762Y-99760151D01*
X134950225Y-99668039D01*
X134950224Y-99668039D01*
X134945243Y-99665716D01*
X134939935Y-99664294D01*
X134939933Y-99664293D01*
X134729402Y-99607881D01*
X134729400Y-99607881D01*
X134724087Y-99606457D01*
X134496000Y-99586502D01*
X134267913Y-99606457D01*
X134262600Y-99607881D01*
X134262598Y-99607881D01*
X134052067Y-99664293D01*
X134052065Y-99664294D01*
X134046757Y-99665716D01*
X134041776Y-99668039D01*
X134041775Y-99668039D01*
X133844238Y-99760151D01*
X133844233Y-99760154D01*
X133839251Y-99762477D01*
X133734389Y-99835902D01*
X133656211Y-99890643D01*
X133656208Y-99890645D01*
X133651700Y-99893802D01*
X133489802Y-100055700D01*
X133358477Y-100243251D01*
X133356154Y-100248233D01*
X133356151Y-100248238D01*
X133264039Y-100445775D01*
X133261716Y-100450757D01*
X133202457Y-100671913D01*
X133182502Y-100900000D01*
X128809498Y-100900000D01*
X128789543Y-100671913D01*
X128730284Y-100450757D01*
X128727961Y-100445775D01*
X128635849Y-100248238D01*
X128635846Y-100248233D01*
X128633523Y-100243251D01*
X128502198Y-100055700D01*
X128340300Y-99893802D01*
X128335792Y-99890645D01*
X128335789Y-99890643D01*
X128257611Y-99835902D01*
X128152749Y-99762477D01*
X128147767Y-99760154D01*
X128147762Y-99760151D01*
X127950225Y-99668039D01*
X127950224Y-99668039D01*
X127945243Y-99665716D01*
X127939935Y-99664294D01*
X127939933Y-99664293D01*
X127729402Y-99607881D01*
X127729400Y-99607881D01*
X127724087Y-99606457D01*
X127496000Y-99586502D01*
X127267913Y-99606457D01*
X127262600Y-99607881D01*
X127262598Y-99607881D01*
X127052067Y-99664293D01*
X127052065Y-99664294D01*
X127046757Y-99665716D01*
X127041776Y-99668039D01*
X127041775Y-99668039D01*
X126844238Y-99760151D01*
X126844233Y-99760154D01*
X126839251Y-99762477D01*
X126734389Y-99835902D01*
X126656211Y-99890643D01*
X126656208Y-99890645D01*
X126651700Y-99893802D01*
X126489802Y-100055700D01*
X126358477Y-100243251D01*
X126356154Y-100248233D01*
X126356151Y-100248238D01*
X126264039Y-100445775D01*
X126261716Y-100450757D01*
X126202457Y-100671913D01*
X126182502Y-100900000D01*
X121008500Y-100900000D01*
X121008500Y-96489269D01*
X121028502Y-96421148D01*
X121082158Y-96374655D01*
X121152432Y-96364551D01*
X121217012Y-96394045D01*
X121229232Y-96406191D01*
X121399573Y-96600427D01*
X121402662Y-96603136D01*
X121619062Y-96792915D01*
X121619068Y-96792919D01*
X121622162Y-96795633D01*
X121625588Y-96797922D01*
X121625593Y-96797926D01*
X121809405Y-96920744D01*
X121868327Y-96960115D01*
X121872026Y-96961939D01*
X121872031Y-96961942D01*
X122008313Y-97029148D01*
X122133855Y-97091059D01*
X122137760Y-97092384D01*
X122137761Y-97092385D01*
X122410290Y-97184896D01*
X122410294Y-97184897D01*
X122414203Y-97186224D01*
X122418247Y-97187028D01*
X122418253Y-97187030D01*
X122700535Y-97243180D01*
X122700541Y-97243181D01*
X122704574Y-97243983D01*
X122708679Y-97244252D01*
X122708686Y-97244253D01*
X122995881Y-97263076D01*
X123000000Y-97263346D01*
X123004119Y-97263076D01*
X123291314Y-97244253D01*
X123291321Y-97244252D01*
X123295426Y-97243983D01*
X123299459Y-97243181D01*
X123299465Y-97243180D01*
X123581747Y-97187030D01*
X123581753Y-97187028D01*
X123585797Y-97186224D01*
X123589706Y-97184897D01*
X123589710Y-97184896D01*
X123862239Y-97092385D01*
X123862240Y-97092384D01*
X123866145Y-97091059D01*
X123991687Y-97029148D01*
X124127969Y-96961942D01*
X124127974Y-96961939D01*
X124131673Y-96960115D01*
X124190595Y-96920744D01*
X124374407Y-96797926D01*
X124374412Y-96797922D01*
X124377838Y-96795633D01*
X124380932Y-96792919D01*
X124380938Y-96792915D01*
X124597338Y-96603136D01*
X124600427Y-96600427D01*
X124603136Y-96597338D01*
X124792915Y-96380938D01*
X124792919Y-96380932D01*
X124795633Y-96377838D01*
X124804512Y-96364551D01*
X124957821Y-96135106D01*
X124960115Y-96131673D01*
X125091059Y-95866145D01*
X125186224Y-95585797D01*
X125243983Y-95295426D01*
X125263346Y-95000000D01*
X125243983Y-94704574D01*
X125186224Y-94414203D01*
X125091059Y-94133855D01*
X124960115Y-93868327D01*
X124920744Y-93809405D01*
X124797926Y-93625593D01*
X124797922Y-93625588D01*
X124795633Y-93622162D01*
X124792919Y-93619068D01*
X124792915Y-93619062D01*
X124603136Y-93402662D01*
X124600427Y-93399573D01*
X124406191Y-93229232D01*
X124368164Y-93169278D01*
X124368586Y-93098283D01*
X124407325Y-93038786D01*
X124472080Y-93009678D01*
X124489269Y-93008500D01*
X164510731Y-93008500D01*
X164578852Y-93028502D01*
G37*
%TD.AperFunction*%
%TD*%
M02*
