%TF.GenerationSoftware,KiCad,Pcbnew,(6.0.8-1)-1*%
%TF.CreationDate,2024-02-23T21:50:08-06:00*%
%TF.ProjectId,Addressable LED Interface,41646472-6573-4736-9162-6c65204c4544,rev?*%
%TF.SameCoordinates,Original*%
%TF.FileFunction,Copper,L2,Bot*%
%TF.FilePolarity,Positive*%
%FSLAX46Y46*%
G04 Gerber Fmt 4.6, Leading zero omitted, Abs format (unit mm)*
G04 Created by KiCad (PCBNEW (6.0.8-1)-1) date 2024-02-23 21:50:08*
%MOMM*%
%LPD*%
G01*
G04 APERTURE LIST*
%TA.AperFunction,ComponentPad*%
%ADD10R,1.700000X1.700000*%
%TD*%
%TA.AperFunction,ComponentPad*%
%ADD11O,1.700000X1.700000*%
%TD*%
%TA.AperFunction,ComponentPad*%
%ADD12C,1.600000*%
%TD*%
%TA.AperFunction,ComponentPad*%
%ADD13C,3.500000*%
%TD*%
%TA.AperFunction,ComponentPad*%
%ADD14C,1.700000*%
%TD*%
%TA.AperFunction,ComponentPad*%
%ADD15C,1.650000*%
%TD*%
%TA.AperFunction,Conductor*%
%ADD16C,0.500000*%
%TD*%
G04 APERTURE END LIST*
D10*
%TO.P,J2,1,Pin_1*%
%TO.N,/CH2*%
X139700000Y-114300000D03*
D11*
%TO.P,J2,2,Pin_2*%
%TO.N,+6V*%
X139700000Y-116840000D03*
%TO.P,J2,3,Pin_3*%
%TO.N,GND*%
X139700000Y-119380000D03*
%TD*%
D12*
%TO.P,J5,1,1*%
%TO.N,/CH1*%
X134496000Y-100900000D03*
%TO.P,J5,2,2*%
%TO.N,VDD*%
X130996000Y-105900000D03*
%TO.P,J5,3,3*%
%TO.N,GND*%
X127496000Y-100900000D03*
%TD*%
D13*
%TO.P,H1,1,1*%
%TO.N,unconnected-(H1-Pad1)*%
X123000000Y-95000000D03*
%TD*%
D12*
%TO.P,J6,1,1*%
%TO.N,/CH2*%
X147796000Y-100900000D03*
%TO.P,J6,2,2*%
%TO.N,VDD*%
X144296000Y-105900000D03*
%TO.P,J6,3,3*%
%TO.N,GND*%
X140796000Y-100900000D03*
%TD*%
D13*
%TO.P,H3,1,1*%
%TO.N,unconnected-(H3-Pad1)*%
X166000000Y-121000000D03*
%TD*%
%TO.P,H4,1,1*%
%TO.N,unconnected-(H4-Pad1)*%
X166000000Y-95000000D03*
%TD*%
%TO.P,H2,1,1*%
%TO.N,unconnected-(H2-Pad1)*%
X123000000Y-121000000D03*
%TD*%
D14*
%TO.P,U1,1,EN*%
%TO.N,+BATT*%
X153670000Y-119380000D03*
%TO.P,U1,2,VIN*%
X156210000Y-119380000D03*
%TO.P,U1,3,GND*%
%TO.N,GND*%
X158750000Y-119380000D03*
%TO.P,U1,4,VOUT*%
%TO.N,+5V*%
X161290000Y-119380000D03*
%TD*%
D10*
%TO.P,J1,1,Pin_1*%
%TO.N,/CH1*%
X132080000Y-114300000D03*
D11*
%TO.P,J1,2,Pin_2*%
%TO.N,+6V*%
X132080000Y-116840000D03*
%TO.P,J1,3,Pin_3*%
%TO.N,GND*%
X132080000Y-119380000D03*
%TD*%
D15*
%TO.P,J3,1,1*%
%TO.N,+BATT*%
X146068000Y-111290000D03*
%TO.P,J3,2,2*%
%TO.N,GND*%
X149568000Y-116290000D03*
%TD*%
D10*
%TO.P,J4,1,Pin_1*%
%TO.N,+5V*%
X137825000Y-110400000D03*
D11*
%TO.P,J4,2,Pin_2*%
%TO.N,VDD*%
X135285000Y-110400000D03*
%TO.P,J4,3,Pin_3*%
%TO.N,+6V*%
X132745000Y-110400000D03*
%TD*%
D16*
%TO.N,/CH1*%
X129600000Y-111900000D02*
X132000000Y-114300000D01*
X131500000Y-108100000D02*
X129600000Y-110000000D01*
X129600000Y-110000000D02*
X129600000Y-111900000D01*
X134496000Y-100900000D02*
X134496000Y-106904000D01*
X134496000Y-106904000D02*
X133300000Y-108100000D01*
X132000000Y-114300000D02*
X132080000Y-114300000D01*
X133300000Y-108100000D02*
X131500000Y-108100000D01*
%TO.N,/CH2*%
X147796000Y-100900000D02*
X147796000Y-106604000D01*
X145500000Y-108900000D02*
X142900000Y-108900000D01*
X139700000Y-112100000D02*
X139700000Y-114300000D01*
X147796000Y-106604000D02*
X145500000Y-108900000D01*
X142900000Y-108900000D02*
X139700000Y-112100000D01*
%TD*%
%TA.AperFunction,Conductor*%
%TO.N,GND*%
G36*
X164578852Y-93028502D02*
G01*
X164625345Y-93082158D01*
X164635449Y-93152432D01*
X164605955Y-93217012D01*
X164593809Y-93229232D01*
X164399573Y-93399573D01*
X164396864Y-93402662D01*
X164207085Y-93619062D01*
X164207081Y-93619068D01*
X164204367Y-93622162D01*
X164202078Y-93625588D01*
X164202074Y-93625593D01*
X164079256Y-93809405D01*
X164039885Y-93868327D01*
X163908941Y-94133855D01*
X163813776Y-94414203D01*
X163756017Y-94704574D01*
X163736654Y-95000000D01*
X163756017Y-95295426D01*
X163813776Y-95585797D01*
X163908941Y-95866145D01*
X164039885Y-96131673D01*
X164042179Y-96135106D01*
X164195489Y-96364551D01*
X164204367Y-96377838D01*
X164207081Y-96380932D01*
X164207085Y-96380938D01*
X164396864Y-96597338D01*
X164399573Y-96600427D01*
X164402662Y-96603136D01*
X164619062Y-96792915D01*
X164619068Y-96792919D01*
X164622162Y-96795633D01*
X164625588Y-96797922D01*
X164625593Y-96797926D01*
X164809405Y-96920744D01*
X164868327Y-96960115D01*
X164872026Y-96961939D01*
X164872031Y-96961942D01*
X165008313Y-97029148D01*
X165133855Y-97091059D01*
X165137760Y-97092384D01*
X165137761Y-97092385D01*
X165410290Y-97184896D01*
X165410294Y-97184897D01*
X165414203Y-97186224D01*
X165418247Y-97187028D01*
X165418253Y-97187030D01*
X165700535Y-97243180D01*
X165700541Y-97243181D01*
X165704574Y-97243983D01*
X165708679Y-97244252D01*
X165708686Y-97244253D01*
X165995881Y-97263076D01*
X166000000Y-97263346D01*
X166004119Y-97263076D01*
X166291314Y-97244253D01*
X166291321Y-97244252D01*
X166295426Y-97243983D01*
X166299459Y-97243181D01*
X166299465Y-97243180D01*
X166581747Y-97187030D01*
X166581753Y-97187028D01*
X166585797Y-97186224D01*
X166589706Y-97184897D01*
X166589710Y-97184896D01*
X166862239Y-97092385D01*
X166862240Y-97092384D01*
X166866145Y-97091059D01*
X166991687Y-97029148D01*
X167127969Y-96961942D01*
X167127974Y-96961939D01*
X167131673Y-96960115D01*
X167190595Y-96920744D01*
X167374407Y-96797926D01*
X167374412Y-96797922D01*
X167377838Y-96795633D01*
X167380932Y-96792919D01*
X167380938Y-96792915D01*
X167597338Y-96603136D01*
X167600427Y-96600427D01*
X167770768Y-96406191D01*
X167830722Y-96368164D01*
X167901717Y-96368586D01*
X167961214Y-96407325D01*
X167990322Y-96472080D01*
X167991500Y-96489269D01*
X167991500Y-119510731D01*
X167971498Y-119578852D01*
X167917842Y-119625345D01*
X167847568Y-119635449D01*
X167782988Y-119605955D01*
X167770768Y-119593809D01*
X167603136Y-119402662D01*
X167600427Y-119399573D01*
X167576818Y-119378868D01*
X167380938Y-119207085D01*
X167380932Y-119207081D01*
X167377838Y-119204367D01*
X167374412Y-119202078D01*
X167374407Y-119202074D01*
X167135106Y-119042179D01*
X167131673Y-119039885D01*
X167127974Y-119038061D01*
X167127969Y-119038058D01*
X166991687Y-118970852D01*
X166866145Y-118908941D01*
X166853896Y-118904783D01*
X166589710Y-118815104D01*
X166589706Y-118815103D01*
X166585797Y-118813776D01*
X166581753Y-118812972D01*
X166581747Y-118812970D01*
X166299465Y-118756820D01*
X166299459Y-118756819D01*
X166295426Y-118756017D01*
X166291321Y-118755748D01*
X166291314Y-118755747D01*
X166004119Y-118736924D01*
X166000000Y-118736654D01*
X165995881Y-118736924D01*
X165708686Y-118755747D01*
X165708679Y-118755748D01*
X165704574Y-118756017D01*
X165700541Y-118756819D01*
X165700535Y-118756820D01*
X165418253Y-118812970D01*
X165418247Y-118812972D01*
X165414203Y-118813776D01*
X165410294Y-118815103D01*
X165410290Y-118815104D01*
X165146104Y-118904783D01*
X165133855Y-118908941D01*
X165008313Y-118970852D01*
X164872031Y-119038058D01*
X164872026Y-119038061D01*
X164868327Y-119039885D01*
X164864894Y-119042179D01*
X164625593Y-119202074D01*
X164625588Y-119202078D01*
X164622162Y-119204367D01*
X164619068Y-119207081D01*
X164619062Y-119207085D01*
X164423182Y-119378868D01*
X164399573Y-119399573D01*
X164396864Y-119402662D01*
X164207085Y-119619062D01*
X164207081Y-119619068D01*
X164204367Y-119622162D01*
X164202078Y-119625588D01*
X164202074Y-119625593D01*
X164093799Y-119787639D01*
X164039885Y-119868327D01*
X164038061Y-119872026D01*
X164038058Y-119872031D01*
X164035678Y-119876857D01*
X163908941Y-120133855D01*
X163813776Y-120414203D01*
X163812972Y-120418247D01*
X163812970Y-120418253D01*
X163757113Y-120699065D01*
X163756017Y-120704574D01*
X163755748Y-120708679D01*
X163755747Y-120708686D01*
X163753580Y-120741753D01*
X163736654Y-121000000D01*
X163756017Y-121295426D01*
X163813776Y-121585797D01*
X163908941Y-121866145D01*
X164039885Y-122131673D01*
X164042179Y-122135106D01*
X164195489Y-122364551D01*
X164204367Y-122377838D01*
X164207081Y-122380932D01*
X164207085Y-122380938D01*
X164396864Y-122597338D01*
X164399573Y-122600427D01*
X164402662Y-122603136D01*
X164593809Y-122770768D01*
X164631836Y-122830722D01*
X164631414Y-122901717D01*
X164592675Y-122961214D01*
X164527920Y-122990322D01*
X164510731Y-122991500D01*
X124489269Y-122991500D01*
X124421148Y-122971498D01*
X124374655Y-122917842D01*
X124364551Y-122847568D01*
X124394045Y-122782988D01*
X124406191Y-122770768D01*
X124597338Y-122603136D01*
X124600427Y-122600427D01*
X124603136Y-122597338D01*
X124792915Y-122380938D01*
X124792919Y-122380932D01*
X124795633Y-122377838D01*
X124804512Y-122364551D01*
X124957821Y-122135106D01*
X124960115Y-122131673D01*
X125091059Y-121866145D01*
X125186224Y-121585797D01*
X125243983Y-121295426D01*
X125263346Y-121000000D01*
X125246420Y-120741753D01*
X125244253Y-120708686D01*
X125244252Y-120708679D01*
X125243983Y-120704574D01*
X125242888Y-120699065D01*
X125187030Y-120418253D01*
X125187028Y-120418247D01*
X125186224Y-120414203D01*
X125091059Y-120133855D01*
X124964322Y-119876857D01*
X124961942Y-119872031D01*
X124961939Y-119872026D01*
X124960115Y-119868327D01*
X124906201Y-119787639D01*
X124812875Y-119647966D01*
X130748257Y-119647966D01*
X130778565Y-119782446D01*
X130781645Y-119792275D01*
X130861770Y-119989603D01*
X130866413Y-119998794D01*
X130977694Y-120180388D01*
X130983777Y-120188699D01*
X131123213Y-120349667D01*
X131130580Y-120356883D01*
X131294434Y-120492916D01*
X131302881Y-120498831D01*
X131486756Y-120606279D01*
X131496042Y-120610729D01*
X131695001Y-120686703D01*
X131704899Y-120689579D01*
X131808250Y-120710606D01*
X131822299Y-120709410D01*
X131826000Y-120699065D01*
X131826000Y-120698517D01*
X132334000Y-120698517D01*
X132338064Y-120712359D01*
X132351478Y-120714393D01*
X132358184Y-120713534D01*
X132368262Y-120711392D01*
X132572255Y-120650191D01*
X132581842Y-120646433D01*
X132773095Y-120552739D01*
X132781945Y-120547464D01*
X132955328Y-120423792D01*
X132963200Y-120417139D01*
X133114052Y-120266812D01*
X133120730Y-120258965D01*
X133245003Y-120086020D01*
X133250313Y-120077183D01*
X133344670Y-119886267D01*
X133348469Y-119876672D01*
X133410377Y-119672910D01*
X133412555Y-119662837D01*
X133413986Y-119651962D01*
X133413363Y-119647966D01*
X138368257Y-119647966D01*
X138398565Y-119782446D01*
X138401645Y-119792275D01*
X138481770Y-119989603D01*
X138486413Y-119998794D01*
X138597694Y-120180388D01*
X138603777Y-120188699D01*
X138743213Y-120349667D01*
X138750580Y-120356883D01*
X138914434Y-120492916D01*
X138922881Y-120498831D01*
X139106756Y-120606279D01*
X139116042Y-120610729D01*
X139315001Y-120686703D01*
X139324899Y-120689579D01*
X139428250Y-120710606D01*
X139442299Y-120709410D01*
X139446000Y-120699065D01*
X139446000Y-120698517D01*
X139954000Y-120698517D01*
X139958064Y-120712359D01*
X139971478Y-120714393D01*
X139978184Y-120713534D01*
X139988262Y-120711392D01*
X140192255Y-120650191D01*
X140201842Y-120646433D01*
X140393095Y-120552739D01*
X140401945Y-120547464D01*
X140575328Y-120423792D01*
X140583200Y-120417139D01*
X140734052Y-120266812D01*
X140740730Y-120258965D01*
X140865003Y-120086020D01*
X140870313Y-120077183D01*
X140964670Y-119886267D01*
X140968469Y-119876672D01*
X141030377Y-119672910D01*
X141032555Y-119662837D01*
X141033986Y-119651962D01*
X141031775Y-119637778D01*
X141018617Y-119634000D01*
X139972115Y-119634000D01*
X139956876Y-119638475D01*
X139955671Y-119639865D01*
X139954000Y-119647548D01*
X139954000Y-120698517D01*
X139446000Y-120698517D01*
X139446000Y-119652115D01*
X139441525Y-119636876D01*
X139440135Y-119635671D01*
X139432452Y-119634000D01*
X138383225Y-119634000D01*
X138369694Y-119637973D01*
X138368257Y-119647966D01*
X133413363Y-119647966D01*
X133411775Y-119637778D01*
X133398617Y-119634000D01*
X132352115Y-119634000D01*
X132336876Y-119638475D01*
X132335671Y-119639865D01*
X132334000Y-119647548D01*
X132334000Y-120698517D01*
X131826000Y-120698517D01*
X131826000Y-119652115D01*
X131821525Y-119636876D01*
X131820135Y-119635671D01*
X131812452Y-119634000D01*
X130763225Y-119634000D01*
X130749694Y-119637973D01*
X130748257Y-119647966D01*
X124812875Y-119647966D01*
X124797926Y-119625593D01*
X124797922Y-119625588D01*
X124795633Y-119622162D01*
X124792919Y-119619068D01*
X124792915Y-119619062D01*
X124603136Y-119402662D01*
X124600427Y-119399573D01*
X124576818Y-119378868D01*
X124540132Y-119346695D01*
X152307251Y-119346695D01*
X152307548Y-119351848D01*
X152307548Y-119351851D01*
X152313011Y-119446590D01*
X152320110Y-119569715D01*
X152321247Y-119574761D01*
X152321248Y-119574767D01*
X152335449Y-119637778D01*
X152369222Y-119787639D01*
X152453266Y-119994616D01*
X152503863Y-120077183D01*
X152567291Y-120180688D01*
X152569987Y-120185088D01*
X152716250Y-120353938D01*
X152888126Y-120496632D01*
X153081000Y-120609338D01*
X153289692Y-120689030D01*
X153294760Y-120690061D01*
X153294763Y-120690062D01*
X153386304Y-120708686D01*
X153508597Y-120733567D01*
X153513772Y-120733757D01*
X153513774Y-120733757D01*
X153726673Y-120741564D01*
X153726677Y-120741564D01*
X153731837Y-120741753D01*
X153736957Y-120741097D01*
X153736959Y-120741097D01*
X153948288Y-120714025D01*
X153948289Y-120714025D01*
X153953416Y-120713368D01*
X153958366Y-120711883D01*
X154162429Y-120650661D01*
X154162434Y-120650659D01*
X154167384Y-120649174D01*
X154367994Y-120550896D01*
X154549860Y-120421173D01*
X154556855Y-120414203D01*
X154704435Y-120267137D01*
X154708096Y-120263489D01*
X154767594Y-120180689D01*
X154838453Y-120082077D01*
X154839776Y-120083028D01*
X154886645Y-120039857D01*
X154956580Y-120027625D01*
X155022026Y-120055144D01*
X155049875Y-120086994D01*
X155109987Y-120185088D01*
X155256250Y-120353938D01*
X155428126Y-120496632D01*
X155621000Y-120609338D01*
X155829692Y-120689030D01*
X155834760Y-120690061D01*
X155834763Y-120690062D01*
X155926304Y-120708686D01*
X156048597Y-120733567D01*
X156053772Y-120733757D01*
X156053774Y-120733757D01*
X156266673Y-120741564D01*
X156266677Y-120741564D01*
X156271837Y-120741753D01*
X156276957Y-120741097D01*
X156276959Y-120741097D01*
X156488288Y-120714025D01*
X156488289Y-120714025D01*
X156493416Y-120713368D01*
X156498366Y-120711883D01*
X156702429Y-120650661D01*
X156702434Y-120650659D01*
X156707384Y-120649174D01*
X156907994Y-120550896D01*
X156972544Y-120504853D01*
X157989977Y-120504853D01*
X157995258Y-120511907D01*
X158156756Y-120606279D01*
X158166042Y-120610729D01*
X158365001Y-120686703D01*
X158374899Y-120689579D01*
X158583595Y-120732038D01*
X158593823Y-120733257D01*
X158806650Y-120741062D01*
X158816936Y-120740595D01*
X159028185Y-120713534D01*
X159038262Y-120711392D01*
X159242255Y-120650191D01*
X159251842Y-120646433D01*
X159443098Y-120552738D01*
X159451944Y-120547465D01*
X159499247Y-120513723D01*
X159507648Y-120503023D01*
X159500660Y-120489870D01*
X158762812Y-119752022D01*
X158748868Y-119744408D01*
X158747035Y-119744539D01*
X158740420Y-119748790D01*
X157996737Y-120492473D01*
X157989977Y-120504853D01*
X156972544Y-120504853D01*
X157089860Y-120421173D01*
X157096855Y-120414203D01*
X157244435Y-120267137D01*
X157248096Y-120263489D01*
X157307594Y-120180689D01*
X157378453Y-120082077D01*
X157379640Y-120082930D01*
X157426960Y-120039362D01*
X157496897Y-120027145D01*
X157562338Y-120054678D01*
X157590166Y-120086512D01*
X157616459Y-120129419D01*
X157626916Y-120138880D01*
X157635694Y-120135096D01*
X158377978Y-119392812D01*
X158384356Y-119381132D01*
X159114408Y-119381132D01*
X159114539Y-119382965D01*
X159118790Y-119389580D01*
X159860474Y-120131264D01*
X159872484Y-120137823D01*
X159884223Y-120128855D01*
X159918022Y-120081819D01*
X159919277Y-120082721D01*
X159966391Y-120039355D01*
X160036330Y-120027148D01*
X160101767Y-120054691D01*
X160129580Y-120086513D01*
X160187287Y-120180683D01*
X160187291Y-120180688D01*
X160189987Y-120185088D01*
X160336250Y-120353938D01*
X160508126Y-120496632D01*
X160701000Y-120609338D01*
X160909692Y-120689030D01*
X160914760Y-120690061D01*
X160914763Y-120690062D01*
X161006304Y-120708686D01*
X161128597Y-120733567D01*
X161133772Y-120733757D01*
X161133774Y-120733757D01*
X161346673Y-120741564D01*
X161346677Y-120741564D01*
X161351837Y-120741753D01*
X161356957Y-120741097D01*
X161356959Y-120741097D01*
X161568288Y-120714025D01*
X161568289Y-120714025D01*
X161573416Y-120713368D01*
X161578366Y-120711883D01*
X161782429Y-120650661D01*
X161782434Y-120650659D01*
X161787384Y-120649174D01*
X161987994Y-120550896D01*
X162169860Y-120421173D01*
X162176855Y-120414203D01*
X162324435Y-120267137D01*
X162328096Y-120263489D01*
X162387594Y-120180689D01*
X162455435Y-120086277D01*
X162458453Y-120082077D01*
X162471995Y-120054678D01*
X162555136Y-119886453D01*
X162555137Y-119886451D01*
X162557430Y-119881811D01*
X162622370Y-119668069D01*
X162651529Y-119446590D01*
X162653156Y-119380000D01*
X162634852Y-119157361D01*
X162580431Y-118940702D01*
X162491354Y-118735840D01*
X162370014Y-118548277D01*
X162219670Y-118383051D01*
X162215619Y-118379852D01*
X162215615Y-118379848D01*
X162048414Y-118247800D01*
X162048410Y-118247798D01*
X162044359Y-118244598D01*
X161848789Y-118136638D01*
X161843920Y-118134914D01*
X161843916Y-118134912D01*
X161643087Y-118063795D01*
X161643083Y-118063794D01*
X161638212Y-118062069D01*
X161633119Y-118061162D01*
X161633116Y-118061161D01*
X161423373Y-118023800D01*
X161423367Y-118023799D01*
X161418284Y-118022894D01*
X161344452Y-118021992D01*
X161200081Y-118020228D01*
X161200079Y-118020228D01*
X161194911Y-118020165D01*
X160974091Y-118053955D01*
X160761756Y-118123357D01*
X160712439Y-118149030D01*
X160575479Y-118220327D01*
X160563607Y-118226507D01*
X160559474Y-118229610D01*
X160559471Y-118229612D01*
X160389100Y-118357530D01*
X160384965Y-118360635D01*
X160230629Y-118522138D01*
X160227720Y-118526403D01*
X160227714Y-118526411D01*
X160215404Y-118544457D01*
X160123204Y-118679618D01*
X160122898Y-118680066D01*
X160067987Y-118725069D01*
X159997462Y-118733240D01*
X159933715Y-118701986D01*
X159913017Y-118677501D01*
X159883062Y-118631197D01*
X159872377Y-118621995D01*
X159862812Y-118626398D01*
X159122022Y-119367188D01*
X159114408Y-119381132D01*
X158384356Y-119381132D01*
X158385592Y-119378868D01*
X158385461Y-119377035D01*
X158381210Y-119370420D01*
X157639849Y-118629059D01*
X157628313Y-118622759D01*
X157616031Y-118632382D01*
X157583499Y-118680072D01*
X157528587Y-118725075D01*
X157458063Y-118733246D01*
X157394316Y-118701992D01*
X157373618Y-118677508D01*
X157292822Y-118552617D01*
X157292820Y-118552614D01*
X157290014Y-118548277D01*
X157139670Y-118383051D01*
X157135619Y-118379852D01*
X157135615Y-118379848D01*
X156979338Y-118256427D01*
X157991223Y-118256427D01*
X157997968Y-118268758D01*
X158737188Y-119007978D01*
X158751132Y-119015592D01*
X158752965Y-119015461D01*
X158759580Y-119011210D01*
X159503389Y-118267401D01*
X159510410Y-118254544D01*
X159503611Y-118245213D01*
X159499554Y-118242518D01*
X159313117Y-118139599D01*
X159303705Y-118135369D01*
X159102959Y-118064280D01*
X159092989Y-118061646D01*
X158883327Y-118024301D01*
X158873073Y-118023331D01*
X158660116Y-118020728D01*
X158649832Y-118021448D01*
X158439321Y-118053661D01*
X158429293Y-118056050D01*
X158226868Y-118122212D01*
X158217359Y-118126209D01*
X158028466Y-118224540D01*
X158019734Y-118230039D01*
X157999677Y-118245099D01*
X157991223Y-118256427D01*
X156979338Y-118256427D01*
X156968414Y-118247800D01*
X156968410Y-118247798D01*
X156964359Y-118244598D01*
X156768789Y-118136638D01*
X156763920Y-118134914D01*
X156763916Y-118134912D01*
X156563087Y-118063795D01*
X156563083Y-118063794D01*
X156558212Y-118062069D01*
X156553119Y-118061162D01*
X156553116Y-118061161D01*
X156343373Y-118023800D01*
X156343367Y-118023799D01*
X156338284Y-118022894D01*
X156264452Y-118021992D01*
X156120081Y-118020228D01*
X156120079Y-118020228D01*
X156114911Y-118020165D01*
X155894091Y-118053955D01*
X155681756Y-118123357D01*
X155632439Y-118149030D01*
X155495479Y-118220327D01*
X155483607Y-118226507D01*
X155479474Y-118229610D01*
X155479471Y-118229612D01*
X155309100Y-118357530D01*
X155304965Y-118360635D01*
X155150629Y-118522138D01*
X155043201Y-118679621D01*
X154988293Y-118724621D01*
X154917768Y-118732792D01*
X154854021Y-118701538D01*
X154833324Y-118677054D01*
X154752822Y-118552617D01*
X154752820Y-118552614D01*
X154750014Y-118548277D01*
X154599670Y-118383051D01*
X154595619Y-118379852D01*
X154595615Y-118379848D01*
X154428414Y-118247800D01*
X154428410Y-118247798D01*
X154424359Y-118244598D01*
X154228789Y-118136638D01*
X154223920Y-118134914D01*
X154223916Y-118134912D01*
X154023087Y-118063795D01*
X154023083Y-118063794D01*
X154018212Y-118062069D01*
X154013119Y-118061162D01*
X154013116Y-118061161D01*
X153803373Y-118023800D01*
X153803367Y-118023799D01*
X153798284Y-118022894D01*
X153724452Y-118021992D01*
X153580081Y-118020228D01*
X153580079Y-118020228D01*
X153574911Y-118020165D01*
X153354091Y-118053955D01*
X153141756Y-118123357D01*
X153092439Y-118149030D01*
X152955479Y-118220327D01*
X152943607Y-118226507D01*
X152939474Y-118229610D01*
X152939471Y-118229612D01*
X152769100Y-118357530D01*
X152764965Y-118360635D01*
X152610629Y-118522138D01*
X152607720Y-118526403D01*
X152607714Y-118526411D01*
X152595404Y-118544457D01*
X152484743Y-118706680D01*
X152390688Y-118909305D01*
X152330989Y-119124570D01*
X152307251Y-119346695D01*
X124540132Y-119346695D01*
X124380938Y-119207085D01*
X124380932Y-119207081D01*
X124377838Y-119204367D01*
X124374412Y-119202078D01*
X124374407Y-119202074D01*
X124135106Y-119042179D01*
X124131673Y-119039885D01*
X124127974Y-119038061D01*
X124127969Y-119038058D01*
X123991687Y-118970852D01*
X123866145Y-118908941D01*
X123853896Y-118904783D01*
X123589710Y-118815104D01*
X123589706Y-118815103D01*
X123585797Y-118813776D01*
X123581753Y-118812972D01*
X123581747Y-118812970D01*
X123299465Y-118756820D01*
X123299459Y-118756819D01*
X123295426Y-118756017D01*
X123291321Y-118755748D01*
X123291314Y-118755747D01*
X123004119Y-118736924D01*
X123000000Y-118736654D01*
X122995881Y-118736924D01*
X122708686Y-118755747D01*
X122708679Y-118755748D01*
X122704574Y-118756017D01*
X122700541Y-118756819D01*
X122700535Y-118756820D01*
X122418253Y-118812970D01*
X122418247Y-118812972D01*
X122414203Y-118813776D01*
X122410294Y-118815103D01*
X122410290Y-118815104D01*
X122146104Y-118904783D01*
X122133855Y-118908941D01*
X122008313Y-118970852D01*
X121872031Y-119038058D01*
X121872026Y-119038061D01*
X121868327Y-119039885D01*
X121864894Y-119042179D01*
X121625593Y-119202074D01*
X121625588Y-119202078D01*
X121622162Y-119204367D01*
X121619068Y-119207081D01*
X121619062Y-119207085D01*
X121423182Y-119378868D01*
X121399573Y-119399573D01*
X121396864Y-119402662D01*
X121229232Y-119593809D01*
X121169278Y-119631836D01*
X121098283Y-119631414D01*
X121038786Y-119592675D01*
X121009678Y-119527920D01*
X121008500Y-119510731D01*
X121008500Y-111873349D01*
X128836801Y-111873349D01*
X128837394Y-111880641D01*
X128837394Y-111880644D01*
X128841085Y-111926018D01*
X128841500Y-111936233D01*
X128841500Y-111944293D01*
X128841925Y-111947937D01*
X128844789Y-111972507D01*
X128845222Y-111976882D01*
X128849715Y-112032115D01*
X128851140Y-112049637D01*
X128853396Y-112056601D01*
X128854587Y-112062560D01*
X128855971Y-112068415D01*
X128856818Y-112075681D01*
X128881735Y-112144327D01*
X128883152Y-112148455D01*
X128883793Y-112150432D01*
X128905649Y-112217899D01*
X128909445Y-112224154D01*
X128911951Y-112229628D01*
X128914670Y-112235058D01*
X128917167Y-112241937D01*
X128921180Y-112248057D01*
X128921180Y-112248058D01*
X128957186Y-112302976D01*
X128959523Y-112306680D01*
X128997405Y-112369107D01*
X129001121Y-112373315D01*
X129001122Y-112373316D01*
X129004803Y-112377484D01*
X129004776Y-112377508D01*
X129007429Y-112380500D01*
X129010132Y-112383733D01*
X129014144Y-112389852D01*
X129019456Y-112394884D01*
X129070383Y-112443128D01*
X129072825Y-112445506D01*
X130684595Y-114057276D01*
X130718621Y-114119588D01*
X130721500Y-114146371D01*
X130721500Y-115198134D01*
X130728255Y-115260316D01*
X130779385Y-115396705D01*
X130866739Y-115513261D01*
X130983295Y-115600615D01*
X130991704Y-115603767D01*
X130991705Y-115603768D01*
X131100451Y-115644535D01*
X131157216Y-115687176D01*
X131181916Y-115753738D01*
X131166709Y-115823087D01*
X131147316Y-115849568D01*
X131020629Y-115982138D01*
X130894743Y-116166680D01*
X130879003Y-116200590D01*
X130836975Y-116291132D01*
X130800688Y-116369305D01*
X130740989Y-116584570D01*
X130717251Y-116806695D01*
X130717548Y-116811848D01*
X130717548Y-116811851D01*
X130729683Y-117022307D01*
X130730110Y-117029715D01*
X130731247Y-117034761D01*
X130731248Y-117034767D01*
X130751119Y-117122939D01*
X130779222Y-117247639D01*
X130863266Y-117454616D01*
X130865965Y-117459020D01*
X130956242Y-117606339D01*
X130979987Y-117645088D01*
X131126250Y-117813938D01*
X131298126Y-117956632D01*
X131371955Y-117999774D01*
X131420679Y-118051412D01*
X131433750Y-118121195D01*
X131407019Y-118186967D01*
X131366562Y-118220327D01*
X131358457Y-118224546D01*
X131349738Y-118230036D01*
X131179433Y-118357905D01*
X131171726Y-118364748D01*
X131024590Y-118518717D01*
X131018104Y-118526727D01*
X130898098Y-118702649D01*
X130893000Y-118711623D01*
X130803338Y-118904783D01*
X130799775Y-118914470D01*
X130744389Y-119114183D01*
X130745912Y-119122607D01*
X130758292Y-119126000D01*
X133398344Y-119126000D01*
X133411875Y-119122027D01*
X133413180Y-119112947D01*
X133371214Y-118945875D01*
X133367894Y-118936124D01*
X133282972Y-118740814D01*
X133278105Y-118731739D01*
X133162426Y-118552926D01*
X133156136Y-118544757D01*
X133012806Y-118387240D01*
X133005273Y-118380215D01*
X132838139Y-118248222D01*
X132829556Y-118242520D01*
X132792602Y-118222120D01*
X132742631Y-118171687D01*
X132727859Y-118102245D01*
X132752975Y-118035839D01*
X132780327Y-118009232D01*
X132803797Y-117992491D01*
X132959860Y-117881173D01*
X133118096Y-117723489D01*
X133177594Y-117640689D01*
X133245435Y-117546277D01*
X133248453Y-117542077D01*
X133296103Y-117445665D01*
X133345136Y-117346453D01*
X133345137Y-117346451D01*
X133347430Y-117341811D01*
X133412370Y-117128069D01*
X133441529Y-116906590D01*
X133443156Y-116840000D01*
X133424852Y-116617361D01*
X133370431Y-116400702D01*
X133281354Y-116195840D01*
X133241906Y-116134862D01*
X133162822Y-116012617D01*
X133162820Y-116012614D01*
X133160014Y-116008277D01*
X133156532Y-116004450D01*
X133012798Y-115846488D01*
X132981746Y-115782642D01*
X132990141Y-115712143D01*
X133035317Y-115657375D01*
X133061761Y-115643706D01*
X133168297Y-115603767D01*
X133176705Y-115600615D01*
X133293261Y-115513261D01*
X133380615Y-115396705D01*
X133431745Y-115260316D01*
X133438500Y-115198134D01*
X133438500Y-113401866D01*
X133431745Y-113339684D01*
X133380615Y-113203295D01*
X133293261Y-113086739D01*
X133176705Y-112999385D01*
X133040316Y-112948255D01*
X132978134Y-112941500D01*
X131766371Y-112941500D01*
X131698250Y-112921498D01*
X131677276Y-112904595D01*
X130395405Y-111622724D01*
X130361379Y-111560412D01*
X130358500Y-111533629D01*
X130358500Y-110366371D01*
X130378502Y-110298250D01*
X130395405Y-110277276D01*
X131777276Y-108895405D01*
X131839588Y-108861379D01*
X131866371Y-108858500D01*
X132297213Y-108858500D01*
X132365334Y-108878502D01*
X132411827Y-108932158D01*
X132421931Y-109002432D01*
X132392437Y-109067012D01*
X132336358Y-109104265D01*
X132216756Y-109143357D01*
X132018607Y-109246507D01*
X132014474Y-109249610D01*
X132014471Y-109249612D01*
X131844100Y-109377530D01*
X131839965Y-109380635D01*
X131805950Y-109416230D01*
X131709412Y-109517251D01*
X131685629Y-109542138D01*
X131559743Y-109726680D01*
X131544764Y-109758950D01*
X131469160Y-109921826D01*
X131465688Y-109929305D01*
X131405989Y-110144570D01*
X131382251Y-110366695D01*
X131395110Y-110589715D01*
X131396247Y-110594761D01*
X131396248Y-110594767D01*
X131403217Y-110625690D01*
X131444222Y-110807639D01*
X131528266Y-111014616D01*
X131565685Y-111075678D01*
X131642291Y-111200688D01*
X131644987Y-111205088D01*
X131791250Y-111373938D01*
X131963126Y-111516632D01*
X132156000Y-111629338D01*
X132364692Y-111709030D01*
X132369760Y-111710061D01*
X132369763Y-111710062D01*
X132477017Y-111731883D01*
X132583597Y-111753567D01*
X132588772Y-111753757D01*
X132588774Y-111753757D01*
X132801673Y-111761564D01*
X132801677Y-111761564D01*
X132806837Y-111761753D01*
X132811957Y-111761097D01*
X132811959Y-111761097D01*
X133023288Y-111734025D01*
X133023289Y-111734025D01*
X133028416Y-111733368D01*
X133033366Y-111731883D01*
X133237429Y-111670661D01*
X133237434Y-111670659D01*
X133242384Y-111669174D01*
X133442994Y-111570896D01*
X133624860Y-111441173D01*
X133783096Y-111283489D01*
X133814613Y-111239629D01*
X133913453Y-111102077D01*
X133914776Y-111103028D01*
X133961645Y-111059857D01*
X134031580Y-111047625D01*
X134097026Y-111075144D01*
X134124875Y-111106994D01*
X134184987Y-111205088D01*
X134331250Y-111373938D01*
X134503126Y-111516632D01*
X134696000Y-111629338D01*
X134904692Y-111709030D01*
X134909760Y-111710061D01*
X134909763Y-111710062D01*
X135017017Y-111731883D01*
X135123597Y-111753567D01*
X135128772Y-111753757D01*
X135128774Y-111753757D01*
X135341673Y-111761564D01*
X135341677Y-111761564D01*
X135346837Y-111761753D01*
X135351957Y-111761097D01*
X135351959Y-111761097D01*
X135563288Y-111734025D01*
X135563289Y-111734025D01*
X135568416Y-111733368D01*
X135573366Y-111731883D01*
X135777429Y-111670661D01*
X135777434Y-111670659D01*
X135782384Y-111669174D01*
X135982994Y-111570896D01*
X136164860Y-111441173D01*
X136273091Y-111333319D01*
X136335462Y-111299404D01*
X136406268Y-111304592D01*
X136463030Y-111347238D01*
X136480012Y-111378341D01*
X136524385Y-111496705D01*
X136611739Y-111613261D01*
X136728295Y-111700615D01*
X136864684Y-111751745D01*
X136926866Y-111758500D01*
X138723134Y-111758500D01*
X138785316Y-111751745D01*
X138792715Y-111748971D01*
X138792720Y-111748970D01*
X138801473Y-111745689D01*
X138872280Y-111740508D01*
X138934648Y-111774430D01*
X138968775Y-111836687D01*
X138969059Y-111889331D01*
X138960514Y-111930412D01*
X138959544Y-111934696D01*
X138942192Y-112005610D01*
X138941500Y-112016764D01*
X138941464Y-112016762D01*
X138941225Y-112020755D01*
X138940851Y-112024947D01*
X138939360Y-112032115D01*
X138939558Y-112039432D01*
X138941454Y-112109521D01*
X138941500Y-112112928D01*
X138941500Y-112815500D01*
X138921498Y-112883621D01*
X138867842Y-112930114D01*
X138815500Y-112941500D01*
X138801866Y-112941500D01*
X138739684Y-112948255D01*
X138603295Y-112999385D01*
X138486739Y-113086739D01*
X138399385Y-113203295D01*
X138348255Y-113339684D01*
X138341500Y-113401866D01*
X138341500Y-115198134D01*
X138348255Y-115260316D01*
X138399385Y-115396705D01*
X138486739Y-115513261D01*
X138603295Y-115600615D01*
X138611704Y-115603767D01*
X138611705Y-115603768D01*
X138720451Y-115644535D01*
X138777216Y-115687176D01*
X138801916Y-115753738D01*
X138786709Y-115823087D01*
X138767316Y-115849568D01*
X138640629Y-115982138D01*
X138514743Y-116166680D01*
X138499003Y-116200590D01*
X138456975Y-116291132D01*
X138420688Y-116369305D01*
X138360989Y-116584570D01*
X138337251Y-116806695D01*
X138337548Y-116811848D01*
X138337548Y-116811851D01*
X138349683Y-117022307D01*
X138350110Y-117029715D01*
X138351247Y-117034761D01*
X138351248Y-117034767D01*
X138371119Y-117122939D01*
X138399222Y-117247639D01*
X138483266Y-117454616D01*
X138485965Y-117459020D01*
X138576242Y-117606339D01*
X138599987Y-117645088D01*
X138746250Y-117813938D01*
X138918126Y-117956632D01*
X138991955Y-117999774D01*
X139040679Y-118051412D01*
X139053750Y-118121195D01*
X139027019Y-118186967D01*
X138986562Y-118220327D01*
X138978457Y-118224546D01*
X138969738Y-118230036D01*
X138799433Y-118357905D01*
X138791726Y-118364748D01*
X138644590Y-118518717D01*
X138638104Y-118526727D01*
X138518098Y-118702649D01*
X138513000Y-118711623D01*
X138423338Y-118904783D01*
X138419775Y-118914470D01*
X138364389Y-119114183D01*
X138365912Y-119122607D01*
X138378292Y-119126000D01*
X141018344Y-119126000D01*
X141031875Y-119122027D01*
X141033180Y-119112947D01*
X140991214Y-118945875D01*
X140987894Y-118936124D01*
X140902972Y-118740814D01*
X140898105Y-118731739D01*
X140782426Y-118552926D01*
X140776136Y-118544757D01*
X140632806Y-118387240D01*
X140625273Y-118380215D01*
X140458139Y-118248222D01*
X140449556Y-118242520D01*
X140412602Y-118222120D01*
X140362631Y-118171687D01*
X140347859Y-118102245D01*
X140372975Y-118035839D01*
X140400327Y-118009232D01*
X140423797Y-117992491D01*
X140579860Y-117881173D01*
X140738096Y-117723489D01*
X140797594Y-117640689D01*
X140865435Y-117546277D01*
X140868453Y-117542077D01*
X140916103Y-117445665D01*
X140941631Y-117394013D01*
X148828542Y-117394013D01*
X148837838Y-117406028D01*
X148894446Y-117445665D01*
X148903941Y-117451148D01*
X149105364Y-117545072D01*
X149115656Y-117548818D01*
X149330328Y-117606339D01*
X149341123Y-117608242D01*
X149562525Y-117627613D01*
X149573475Y-117627613D01*
X149794877Y-117608242D01*
X149805672Y-117606339D01*
X150020344Y-117548818D01*
X150030636Y-117545072D01*
X150232059Y-117451148D01*
X150241554Y-117445665D01*
X150299000Y-117405441D01*
X150307375Y-117394964D01*
X150300307Y-117381517D01*
X149580812Y-116662022D01*
X149566868Y-116654408D01*
X149565035Y-116654539D01*
X149558420Y-116658790D01*
X148834972Y-117382238D01*
X148828542Y-117394013D01*
X140941631Y-117394013D01*
X140965136Y-117346453D01*
X140965137Y-117346451D01*
X140967430Y-117341811D01*
X141032370Y-117128069D01*
X141061529Y-116906590D01*
X141063156Y-116840000D01*
X141044852Y-116617361D01*
X140990431Y-116400702D01*
X140944677Y-116295475D01*
X148230387Y-116295475D01*
X148249758Y-116516877D01*
X148251661Y-116527672D01*
X148309182Y-116742344D01*
X148312928Y-116752636D01*
X148406852Y-116954059D01*
X148412335Y-116963554D01*
X148452559Y-117021000D01*
X148463036Y-117029375D01*
X148476483Y-117022307D01*
X149195978Y-116302812D01*
X149202356Y-116291132D01*
X149932408Y-116291132D01*
X149932539Y-116292965D01*
X149936790Y-116299580D01*
X150660238Y-117023028D01*
X150672013Y-117029458D01*
X150684028Y-117020162D01*
X150723665Y-116963554D01*
X150729148Y-116954059D01*
X150823072Y-116752636D01*
X150826818Y-116742344D01*
X150884339Y-116527672D01*
X150886242Y-116516877D01*
X150905613Y-116295475D01*
X150905613Y-116284525D01*
X150886242Y-116063123D01*
X150884339Y-116052328D01*
X150826818Y-115837656D01*
X150823072Y-115827364D01*
X150729148Y-115625941D01*
X150723665Y-115616446D01*
X150683441Y-115559000D01*
X150672964Y-115550625D01*
X150659517Y-115557693D01*
X149940022Y-116277188D01*
X149932408Y-116291132D01*
X149202356Y-116291132D01*
X149203592Y-116288868D01*
X149203461Y-116287035D01*
X149199210Y-116280420D01*
X148475762Y-115556972D01*
X148463987Y-115550542D01*
X148451972Y-115559838D01*
X148412335Y-115616446D01*
X148406852Y-115625941D01*
X148312928Y-115827364D01*
X148309182Y-115837656D01*
X148251661Y-116052328D01*
X148249758Y-116063123D01*
X148230387Y-116284525D01*
X148230387Y-116295475D01*
X140944677Y-116295475D01*
X140901354Y-116195840D01*
X140861906Y-116134862D01*
X140782822Y-116012617D01*
X140782820Y-116012614D01*
X140780014Y-116008277D01*
X140776532Y-116004450D01*
X140632798Y-115846488D01*
X140601746Y-115782642D01*
X140610141Y-115712143D01*
X140655317Y-115657375D01*
X140681761Y-115643706D01*
X140788297Y-115603767D01*
X140796705Y-115600615D01*
X140913261Y-115513261D01*
X141000615Y-115396705D01*
X141051745Y-115260316D01*
X141058500Y-115198134D01*
X141058500Y-115185036D01*
X148828625Y-115185036D01*
X148835693Y-115198483D01*
X149555188Y-115917978D01*
X149569132Y-115925592D01*
X149570965Y-115925461D01*
X149577580Y-115921210D01*
X150301028Y-115197762D01*
X150307458Y-115185987D01*
X150298162Y-115173972D01*
X150241554Y-115134335D01*
X150232059Y-115128852D01*
X150030636Y-115034928D01*
X150020344Y-115031182D01*
X149805672Y-114973661D01*
X149794877Y-114971758D01*
X149573475Y-114952387D01*
X149562525Y-114952387D01*
X149341123Y-114971758D01*
X149330328Y-114973661D01*
X149115656Y-115031182D01*
X149105364Y-115034928D01*
X148903941Y-115128852D01*
X148894446Y-115134335D01*
X148837000Y-115174559D01*
X148828625Y-115185036D01*
X141058500Y-115185036D01*
X141058500Y-113401866D01*
X141051745Y-113339684D01*
X141000615Y-113203295D01*
X140913261Y-113086739D01*
X140796705Y-112999385D01*
X140660316Y-112948255D01*
X140598134Y-112941500D01*
X140584500Y-112941500D01*
X140516379Y-112921498D01*
X140469886Y-112867842D01*
X140458500Y-112815500D01*
X140458500Y-112466371D01*
X140478502Y-112398250D01*
X140495405Y-112377276D01*
X141582681Y-111290000D01*
X144729406Y-111290000D01*
X144749742Y-111522444D01*
X144751166Y-111527757D01*
X144751166Y-111527759D01*
X144799738Y-111709030D01*
X144810133Y-111747826D01*
X144812455Y-111752806D01*
X144812456Y-111752808D01*
X144906418Y-111954310D01*
X144906421Y-111954315D01*
X144908744Y-111959297D01*
X144911900Y-111963804D01*
X144911901Y-111963806D01*
X144995049Y-112082553D01*
X145042578Y-112150432D01*
X145207568Y-112315422D01*
X145212076Y-112318579D01*
X145212079Y-112318581D01*
X145389951Y-112443128D01*
X145398703Y-112449256D01*
X145403685Y-112451579D01*
X145403690Y-112451582D01*
X145605192Y-112545544D01*
X145610174Y-112547867D01*
X145615482Y-112549289D01*
X145615484Y-112549290D01*
X145830241Y-112606834D01*
X145830243Y-112606834D01*
X145835556Y-112608258D01*
X146068000Y-112628594D01*
X146300444Y-112608258D01*
X146305757Y-112606834D01*
X146305759Y-112606834D01*
X146520516Y-112549290D01*
X146520518Y-112549289D01*
X146525826Y-112547867D01*
X146530808Y-112545544D01*
X146732310Y-112451582D01*
X146732315Y-112451579D01*
X146737297Y-112449256D01*
X146746049Y-112443128D01*
X146923921Y-112318581D01*
X146923924Y-112318579D01*
X146928432Y-112315422D01*
X147093422Y-112150432D01*
X147140952Y-112082553D01*
X147224099Y-111963806D01*
X147224100Y-111963804D01*
X147227256Y-111959297D01*
X147229579Y-111954315D01*
X147229582Y-111954310D01*
X147323544Y-111752808D01*
X147323545Y-111752806D01*
X147325867Y-111747826D01*
X147336263Y-111709030D01*
X147384834Y-111527759D01*
X147384834Y-111527757D01*
X147386258Y-111522444D01*
X147406594Y-111290000D01*
X147386258Y-111057556D01*
X147325867Y-110832174D01*
X147314426Y-110807639D01*
X147229582Y-110625690D01*
X147229579Y-110625685D01*
X147227256Y-110620703D01*
X147224099Y-110616194D01*
X147096581Y-110434079D01*
X147096579Y-110434076D01*
X147093422Y-110429568D01*
X146928432Y-110264578D01*
X146923924Y-110261421D01*
X146923921Y-110261419D01*
X146741806Y-110133901D01*
X146741804Y-110133900D01*
X146737297Y-110130744D01*
X146732315Y-110128421D01*
X146732310Y-110128418D01*
X146530808Y-110034456D01*
X146530806Y-110034455D01*
X146525826Y-110032133D01*
X146520518Y-110030711D01*
X146520516Y-110030710D01*
X146305759Y-109973166D01*
X146305757Y-109973166D01*
X146300444Y-109971742D01*
X146068000Y-109951406D01*
X145835556Y-109971742D01*
X145830243Y-109973166D01*
X145830241Y-109973166D01*
X145615484Y-110030710D01*
X145615482Y-110030711D01*
X145610174Y-110032133D01*
X145605194Y-110034455D01*
X145605192Y-110034456D01*
X145403690Y-110128418D01*
X145403685Y-110128421D01*
X145398703Y-110130744D01*
X145394196Y-110133900D01*
X145394194Y-110133901D01*
X145212079Y-110261419D01*
X145212076Y-110261421D01*
X145207568Y-110264578D01*
X145042578Y-110429568D01*
X145039421Y-110434076D01*
X145039419Y-110434079D01*
X144911901Y-110616194D01*
X144908744Y-110620703D01*
X144906421Y-110625685D01*
X144906418Y-110625690D01*
X144821574Y-110807639D01*
X144810133Y-110832174D01*
X144749742Y-111057556D01*
X144729406Y-111290000D01*
X141582681Y-111290000D01*
X143177276Y-109695405D01*
X143239588Y-109661379D01*
X143266371Y-109658500D01*
X145432930Y-109658500D01*
X145451880Y-109659933D01*
X145466115Y-109662099D01*
X145466119Y-109662099D01*
X145473349Y-109663199D01*
X145480641Y-109662606D01*
X145480644Y-109662606D01*
X145526018Y-109658915D01*
X145536233Y-109658500D01*
X145544293Y-109658500D01*
X145557583Y-109656951D01*
X145572507Y-109655211D01*
X145576882Y-109654778D01*
X145642339Y-109649454D01*
X145642342Y-109649453D01*
X145649637Y-109648860D01*
X145656601Y-109646604D01*
X145662560Y-109645413D01*
X145668415Y-109644029D01*
X145675681Y-109643182D01*
X145744327Y-109618265D01*
X145748455Y-109616848D01*
X145810936Y-109596607D01*
X145810938Y-109596606D01*
X145817899Y-109594351D01*
X145824154Y-109590555D01*
X145829628Y-109588049D01*
X145835058Y-109585330D01*
X145841937Y-109582833D01*
X145860438Y-109570703D01*
X145902976Y-109542814D01*
X145906680Y-109540477D01*
X145969107Y-109502595D01*
X145974468Y-109497861D01*
X145977484Y-109495197D01*
X145977508Y-109495224D01*
X145980500Y-109492571D01*
X145983733Y-109489868D01*
X145989852Y-109485856D01*
X146043128Y-109429617D01*
X146045506Y-109427175D01*
X148284911Y-107187770D01*
X148299323Y-107175384D01*
X148310918Y-107166851D01*
X148310923Y-107166846D01*
X148316818Y-107162508D01*
X148321557Y-107156930D01*
X148321560Y-107156927D01*
X148351035Y-107122232D01*
X148357965Y-107114716D01*
X148363660Y-107109021D01*
X148381281Y-107086749D01*
X148384072Y-107083345D01*
X148426591Y-107033297D01*
X148426592Y-107033295D01*
X148431333Y-107027715D01*
X148434661Y-107021199D01*
X148438028Y-107016150D01*
X148441195Y-107011021D01*
X148445734Y-107005284D01*
X148476655Y-106939125D01*
X148478561Y-106935225D01*
X148500235Y-106892779D01*
X148511769Y-106870192D01*
X148513508Y-106863084D01*
X148515607Y-106857441D01*
X148517524Y-106851678D01*
X148520622Y-106845050D01*
X148535487Y-106773583D01*
X148536457Y-106769299D01*
X148553808Y-106698390D01*
X148554500Y-106687236D01*
X148554536Y-106687238D01*
X148554775Y-106683245D01*
X148555149Y-106679053D01*
X148556640Y-106671885D01*
X148554546Y-106594479D01*
X148554500Y-106591072D01*
X148554500Y-102031867D01*
X148574502Y-101963746D01*
X148608228Y-101928655D01*
X148640300Y-101906198D01*
X148802198Y-101744300D01*
X148933523Y-101556749D01*
X148935846Y-101551767D01*
X148935849Y-101551762D01*
X149027961Y-101354225D01*
X149027961Y-101354224D01*
X149030284Y-101349243D01*
X149050976Y-101272022D01*
X149088119Y-101133402D01*
X149088119Y-101133400D01*
X149089543Y-101128087D01*
X149109498Y-100900000D01*
X149089543Y-100671913D01*
X149052981Y-100535461D01*
X149031707Y-100456067D01*
X149031706Y-100456065D01*
X149030284Y-100450757D01*
X148935966Y-100248489D01*
X148935849Y-100248238D01*
X148935846Y-100248233D01*
X148933523Y-100243251D01*
X148802198Y-100055700D01*
X148640300Y-99893802D01*
X148635792Y-99890645D01*
X148635789Y-99890643D01*
X148509920Y-99802509D01*
X148452749Y-99762477D01*
X148447767Y-99760154D01*
X148447762Y-99760151D01*
X148250225Y-99668039D01*
X148250224Y-99668039D01*
X148245243Y-99665716D01*
X148239935Y-99664294D01*
X148239933Y-99664293D01*
X148029402Y-99607881D01*
X148029400Y-99607881D01*
X148024087Y-99606457D01*
X147796000Y-99586502D01*
X147567913Y-99606457D01*
X147562600Y-99607881D01*
X147562598Y-99607881D01*
X147352067Y-99664293D01*
X147352065Y-99664294D01*
X147346757Y-99665716D01*
X147341776Y-99668039D01*
X147341775Y-99668039D01*
X147144238Y-99760151D01*
X147144233Y-99760154D01*
X147139251Y-99762477D01*
X147082080Y-99802509D01*
X146956211Y-99890643D01*
X146956208Y-99890645D01*
X146951700Y-99893802D01*
X146789802Y-100055700D01*
X146658477Y-100243251D01*
X146656154Y-100248233D01*
X146656151Y-100248238D01*
X146656034Y-100248489D01*
X146561716Y-100450757D01*
X146560294Y-100456065D01*
X146560293Y-100456067D01*
X146539019Y-100535461D01*
X146502457Y-100671913D01*
X146482502Y-100900000D01*
X146502457Y-101128087D01*
X146503881Y-101133400D01*
X146503881Y-101133402D01*
X146541025Y-101272022D01*
X146561716Y-101349243D01*
X146564039Y-101354224D01*
X146564039Y-101354225D01*
X146656151Y-101551762D01*
X146656154Y-101551767D01*
X146658477Y-101556749D01*
X146789802Y-101744300D01*
X146951700Y-101906198D01*
X146983771Y-101928655D01*
X147028099Y-101984110D01*
X147037500Y-102031867D01*
X147037500Y-106237629D01*
X147017498Y-106305750D01*
X147000595Y-106326724D01*
X145222724Y-108104595D01*
X145160412Y-108138621D01*
X145133629Y-108141500D01*
X142967063Y-108141500D01*
X142948114Y-108140067D01*
X142947907Y-108140036D01*
X142926651Y-108136802D01*
X142919359Y-108137395D01*
X142919356Y-108137395D01*
X142873991Y-108141085D01*
X142863777Y-108141500D01*
X142855707Y-108141500D01*
X142852087Y-108141922D01*
X142852069Y-108141923D01*
X142827461Y-108144792D01*
X142823100Y-108145224D01*
X142797981Y-108147267D01*
X142757661Y-108150546D01*
X142757658Y-108150547D01*
X142750363Y-108151140D01*
X142743399Y-108153396D01*
X142737440Y-108154587D01*
X142731585Y-108155971D01*
X142724319Y-108156818D01*
X142655673Y-108181735D01*
X142651545Y-108183152D01*
X142589064Y-108203393D01*
X142589062Y-108203394D01*
X142582101Y-108205649D01*
X142575846Y-108209445D01*
X142570372Y-108211951D01*
X142564942Y-108214670D01*
X142558063Y-108217167D01*
X142497016Y-108257191D01*
X142493327Y-108259518D01*
X142473135Y-108271771D01*
X142435693Y-108294491D01*
X142435688Y-108294495D01*
X142430892Y-108297405D01*
X142422516Y-108304803D01*
X142422493Y-108304777D01*
X142419503Y-108307426D01*
X142416264Y-108310134D01*
X142410148Y-108314144D01*
X142405121Y-108319451D01*
X142405117Y-108319454D01*
X142356872Y-108370383D01*
X142354494Y-108372825D01*
X139398595Y-111328724D01*
X139336283Y-111362750D01*
X139265468Y-111357685D01*
X139208632Y-111315138D01*
X139183821Y-111248618D01*
X139183500Y-111239629D01*
X139183500Y-109501866D01*
X139176745Y-109439684D01*
X139125615Y-109303295D01*
X139038261Y-109186739D01*
X138921705Y-109099385D01*
X138785316Y-109048255D01*
X138723134Y-109041500D01*
X136926866Y-109041500D01*
X136864684Y-109048255D01*
X136728295Y-109099385D01*
X136611739Y-109186739D01*
X136524385Y-109303295D01*
X136521233Y-109311703D01*
X136479919Y-109421907D01*
X136437277Y-109478671D01*
X136370716Y-109503371D01*
X136301367Y-109488163D01*
X136268743Y-109462476D01*
X136218151Y-109406875D01*
X136218142Y-109406866D01*
X136214670Y-109403051D01*
X136210619Y-109399852D01*
X136210615Y-109399848D01*
X136043414Y-109267800D01*
X136043410Y-109267798D01*
X136039359Y-109264598D01*
X135843789Y-109156638D01*
X135838920Y-109154914D01*
X135838916Y-109154912D01*
X135638087Y-109083795D01*
X135638083Y-109083794D01*
X135633212Y-109082069D01*
X135628119Y-109081162D01*
X135628116Y-109081161D01*
X135418373Y-109043800D01*
X135418367Y-109043799D01*
X135413284Y-109042894D01*
X135339452Y-109041992D01*
X135195081Y-109040228D01*
X135195079Y-109040228D01*
X135189911Y-109040165D01*
X134969091Y-109073955D01*
X134756756Y-109143357D01*
X134558607Y-109246507D01*
X134554474Y-109249610D01*
X134554471Y-109249612D01*
X134384100Y-109377530D01*
X134379965Y-109380635D01*
X134345950Y-109416230D01*
X134249412Y-109517251D01*
X134225629Y-109542138D01*
X134118201Y-109699621D01*
X134063293Y-109744621D01*
X133992768Y-109752792D01*
X133929021Y-109721538D01*
X133908324Y-109697054D01*
X133827822Y-109572617D01*
X133827820Y-109572614D01*
X133825014Y-109568277D01*
X133674670Y-109403051D01*
X133670619Y-109399852D01*
X133670615Y-109399848D01*
X133503414Y-109267800D01*
X133503410Y-109267798D01*
X133499359Y-109264598D01*
X133303789Y-109156638D01*
X133273034Y-109145747D01*
X133153091Y-109103273D01*
X133095554Y-109061679D01*
X133069638Y-108995581D01*
X133083572Y-108925966D01*
X133132931Y-108874934D01*
X133195150Y-108858500D01*
X133232930Y-108858500D01*
X133251880Y-108859933D01*
X133266115Y-108862099D01*
X133266119Y-108862099D01*
X133273349Y-108863199D01*
X133280641Y-108862606D01*
X133280644Y-108862606D01*
X133326018Y-108858915D01*
X133336233Y-108858500D01*
X133344293Y-108858500D01*
X133357583Y-108856951D01*
X133372507Y-108855211D01*
X133376882Y-108854778D01*
X133442339Y-108849454D01*
X133442342Y-108849453D01*
X133449637Y-108848860D01*
X133456601Y-108846604D01*
X133462560Y-108845413D01*
X133468415Y-108844029D01*
X133475681Y-108843182D01*
X133544327Y-108818265D01*
X133548455Y-108816848D01*
X133610936Y-108796607D01*
X133610938Y-108796606D01*
X133617899Y-108794351D01*
X133624154Y-108790555D01*
X133629628Y-108788049D01*
X133635058Y-108785330D01*
X133641937Y-108782833D01*
X133702976Y-108742814D01*
X133706680Y-108740477D01*
X133769107Y-108702595D01*
X133777484Y-108695197D01*
X133777508Y-108695224D01*
X133780500Y-108692571D01*
X133783733Y-108689868D01*
X133789852Y-108685856D01*
X133843128Y-108629617D01*
X133845506Y-108627175D01*
X134984911Y-107487770D01*
X134999323Y-107475384D01*
X135010918Y-107466851D01*
X135010923Y-107466846D01*
X135016818Y-107462508D01*
X135021557Y-107456930D01*
X135021560Y-107456927D01*
X135051035Y-107422232D01*
X135057965Y-107414716D01*
X135063660Y-107409021D01*
X135081281Y-107386749D01*
X135084072Y-107383345D01*
X135126591Y-107333297D01*
X135126592Y-107333295D01*
X135131333Y-107327715D01*
X135134661Y-107321199D01*
X135138028Y-107316150D01*
X135141195Y-107311021D01*
X135145734Y-107305284D01*
X135176655Y-107239125D01*
X135178561Y-107235225D01*
X135184599Y-107223401D01*
X135211769Y-107170192D01*
X135213508Y-107163084D01*
X135215607Y-107157441D01*
X135217524Y-107151678D01*
X135220622Y-107145050D01*
X135235487Y-107073583D01*
X135236457Y-107069299D01*
X135245005Y-107034366D01*
X135253808Y-106998390D01*
X135254500Y-106987236D01*
X135254536Y-106987238D01*
X135254775Y-106983245D01*
X135255149Y-106979053D01*
X135256640Y-106971885D01*
X135254546Y-106894479D01*
X135254500Y-106891072D01*
X135254500Y-105900000D01*
X142982502Y-105900000D01*
X143002457Y-106128087D01*
X143061716Y-106349243D01*
X143064039Y-106354224D01*
X143064039Y-106354225D01*
X143156151Y-106551762D01*
X143156154Y-106551767D01*
X143158477Y-106556749D01*
X143289802Y-106744300D01*
X143451700Y-106906198D01*
X143456208Y-106909355D01*
X143456211Y-106909357D01*
X143495927Y-106937166D01*
X143639251Y-107037523D01*
X143644233Y-107039846D01*
X143644238Y-107039849D01*
X143798147Y-107111617D01*
X143846757Y-107134284D01*
X143852065Y-107135706D01*
X143852067Y-107135707D01*
X144062598Y-107192119D01*
X144062600Y-107192119D01*
X144067913Y-107193543D01*
X144296000Y-107213498D01*
X144524087Y-107193543D01*
X144529400Y-107192119D01*
X144529402Y-107192119D01*
X144739933Y-107135707D01*
X144739935Y-107135706D01*
X144745243Y-107134284D01*
X144793853Y-107111617D01*
X144947762Y-107039849D01*
X144947767Y-107039846D01*
X144952749Y-107037523D01*
X145096073Y-106937166D01*
X145135789Y-106909357D01*
X145135792Y-106909355D01*
X145140300Y-106906198D01*
X145302198Y-106744300D01*
X145433523Y-106556749D01*
X145435846Y-106551767D01*
X145435849Y-106551762D01*
X145527961Y-106354225D01*
X145527961Y-106354224D01*
X145530284Y-106349243D01*
X145589543Y-106128087D01*
X145609498Y-105900000D01*
X145589543Y-105671913D01*
X145530284Y-105450757D01*
X145527961Y-105445775D01*
X145435849Y-105248238D01*
X145435846Y-105248233D01*
X145433523Y-105243251D01*
X145302198Y-105055700D01*
X145140300Y-104893802D01*
X145135792Y-104890645D01*
X145135789Y-104890643D01*
X145057611Y-104835902D01*
X144952749Y-104762477D01*
X144947767Y-104760154D01*
X144947762Y-104760151D01*
X144750225Y-104668039D01*
X144750224Y-104668039D01*
X144745243Y-104665716D01*
X144739935Y-104664294D01*
X144739933Y-104664293D01*
X144529402Y-104607881D01*
X144529400Y-104607881D01*
X144524087Y-104606457D01*
X144296000Y-104586502D01*
X144067913Y-104606457D01*
X144062600Y-104607881D01*
X144062598Y-104607881D01*
X143852067Y-104664293D01*
X143852065Y-104664294D01*
X143846757Y-104665716D01*
X143841776Y-104668039D01*
X143841775Y-104668039D01*
X143644238Y-104760151D01*
X143644233Y-104760154D01*
X143639251Y-104762477D01*
X143534389Y-104835902D01*
X143456211Y-104890643D01*
X143456208Y-104890645D01*
X143451700Y-104893802D01*
X143289802Y-105055700D01*
X143158477Y-105243251D01*
X143156154Y-105248233D01*
X143156151Y-105248238D01*
X143064039Y-105445775D01*
X143061716Y-105450757D01*
X143002457Y-105671913D01*
X142982502Y-105900000D01*
X135254500Y-105900000D01*
X135254500Y-102031867D01*
X135267949Y-101986062D01*
X140074493Y-101986062D01*
X140083789Y-101998077D01*
X140134994Y-102033931D01*
X140144489Y-102039414D01*
X140341947Y-102131490D01*
X140352239Y-102135236D01*
X140562688Y-102191625D01*
X140573481Y-102193528D01*
X140790525Y-102212517D01*
X140801475Y-102212517D01*
X141018519Y-102193528D01*
X141029312Y-102191625D01*
X141239761Y-102135236D01*
X141250053Y-102131490D01*
X141447511Y-102039414D01*
X141457006Y-102033931D01*
X141509048Y-101997491D01*
X141517424Y-101987012D01*
X141510356Y-101973566D01*
X140808812Y-101272022D01*
X140794868Y-101264408D01*
X140793035Y-101264539D01*
X140786420Y-101268790D01*
X140080923Y-101974287D01*
X140074493Y-101986062D01*
X135267949Y-101986062D01*
X135274502Y-101963746D01*
X135308228Y-101928655D01*
X135340300Y-101906198D01*
X135502198Y-101744300D01*
X135633523Y-101556749D01*
X135635846Y-101551767D01*
X135635849Y-101551762D01*
X135727961Y-101354225D01*
X135727961Y-101354224D01*
X135730284Y-101349243D01*
X135750976Y-101272022D01*
X135788119Y-101133402D01*
X135788119Y-101133400D01*
X135789543Y-101128087D01*
X135809019Y-100905475D01*
X139483483Y-100905475D01*
X139502472Y-101122519D01*
X139504375Y-101133312D01*
X139560764Y-101343761D01*
X139564510Y-101354053D01*
X139656586Y-101551511D01*
X139662069Y-101561006D01*
X139698509Y-101613048D01*
X139708988Y-101621424D01*
X139722434Y-101614356D01*
X140423978Y-100912812D01*
X140430356Y-100901132D01*
X141160408Y-100901132D01*
X141160539Y-100902965D01*
X141164790Y-100909580D01*
X141870287Y-101615077D01*
X141882062Y-101621507D01*
X141894077Y-101612211D01*
X141929931Y-101561006D01*
X141935414Y-101551511D01*
X142027490Y-101354053D01*
X142031236Y-101343761D01*
X142087625Y-101133312D01*
X142089528Y-101122519D01*
X142108517Y-100905475D01*
X142108517Y-100894525D01*
X142089528Y-100677481D01*
X142087625Y-100666688D01*
X142031236Y-100456239D01*
X142027490Y-100445947D01*
X141935414Y-100248489D01*
X141929931Y-100238994D01*
X141893491Y-100186952D01*
X141883012Y-100178576D01*
X141869566Y-100185644D01*
X141168022Y-100887188D01*
X141160408Y-100901132D01*
X140430356Y-100901132D01*
X140431592Y-100898868D01*
X140431461Y-100897035D01*
X140427210Y-100890420D01*
X139721713Y-100184923D01*
X139709938Y-100178493D01*
X139697923Y-100187789D01*
X139662069Y-100238994D01*
X139656586Y-100248489D01*
X139564510Y-100445947D01*
X139560764Y-100456239D01*
X139504375Y-100666688D01*
X139502472Y-100677481D01*
X139483483Y-100894525D01*
X139483483Y-100905475D01*
X135809019Y-100905475D01*
X135809498Y-100900000D01*
X135789543Y-100671913D01*
X135752981Y-100535461D01*
X135731707Y-100456067D01*
X135731706Y-100456065D01*
X135730284Y-100450757D01*
X135635966Y-100248489D01*
X135635849Y-100248238D01*
X135635846Y-100248233D01*
X135633523Y-100243251D01*
X135502198Y-100055700D01*
X135340300Y-99893802D01*
X135335792Y-99890645D01*
X135335789Y-99890643D01*
X135224886Y-99812988D01*
X140074576Y-99812988D01*
X140081644Y-99826434D01*
X140783188Y-100527978D01*
X140797132Y-100535592D01*
X140798965Y-100535461D01*
X140805580Y-100531210D01*
X141511077Y-99825713D01*
X141517507Y-99813938D01*
X141508211Y-99801923D01*
X141457006Y-99766069D01*
X141447511Y-99760586D01*
X141250053Y-99668510D01*
X141239761Y-99664764D01*
X141029312Y-99608375D01*
X141018519Y-99606472D01*
X140801475Y-99587483D01*
X140790525Y-99587483D01*
X140573481Y-99606472D01*
X140562688Y-99608375D01*
X140352239Y-99664764D01*
X140341947Y-99668510D01*
X140144489Y-99760586D01*
X140134994Y-99766069D01*
X140082952Y-99802509D01*
X140074576Y-99812988D01*
X135224886Y-99812988D01*
X135209920Y-99802509D01*
X135152749Y-99762477D01*
X135147767Y-99760154D01*
X135147762Y-99760151D01*
X134950225Y-99668039D01*
X134950224Y-99668039D01*
X134945243Y-99665716D01*
X134939935Y-99664294D01*
X134939933Y-99664293D01*
X134729402Y-99607881D01*
X134729400Y-99607881D01*
X134724087Y-99606457D01*
X134496000Y-99586502D01*
X134267913Y-99606457D01*
X134262600Y-99607881D01*
X134262598Y-99607881D01*
X134052067Y-99664293D01*
X134052065Y-99664294D01*
X134046757Y-99665716D01*
X134041776Y-99668039D01*
X134041775Y-99668039D01*
X133844238Y-99760151D01*
X133844233Y-99760154D01*
X133839251Y-99762477D01*
X133782080Y-99802509D01*
X133656211Y-99890643D01*
X133656208Y-99890645D01*
X133651700Y-99893802D01*
X133489802Y-100055700D01*
X133358477Y-100243251D01*
X133356154Y-100248233D01*
X133356151Y-100248238D01*
X133356034Y-100248489D01*
X133261716Y-100450757D01*
X133260294Y-100456065D01*
X133260293Y-100456067D01*
X133239019Y-100535461D01*
X133202457Y-100671913D01*
X133182502Y-100900000D01*
X133202457Y-101128087D01*
X133203881Y-101133400D01*
X133203881Y-101133402D01*
X133241025Y-101272022D01*
X133261716Y-101349243D01*
X133264039Y-101354224D01*
X133264039Y-101354225D01*
X133356151Y-101551762D01*
X133356154Y-101551767D01*
X133358477Y-101556749D01*
X133489802Y-101744300D01*
X133651700Y-101906198D01*
X133683771Y-101928655D01*
X133728099Y-101984110D01*
X133737500Y-102031867D01*
X133737500Y-106537629D01*
X133717498Y-106605750D01*
X133700595Y-106626724D01*
X133022724Y-107304595D01*
X132960412Y-107338621D01*
X132933629Y-107341500D01*
X131569217Y-107341500D01*
X131501096Y-107321498D01*
X131454603Y-107267842D01*
X131444499Y-107197568D01*
X131473993Y-107132988D01*
X131515967Y-107101305D01*
X131647762Y-107039849D01*
X131647767Y-107039846D01*
X131652749Y-107037523D01*
X131796073Y-106937166D01*
X131835789Y-106909357D01*
X131835792Y-106909355D01*
X131840300Y-106906198D01*
X132002198Y-106744300D01*
X132133523Y-106556749D01*
X132135846Y-106551767D01*
X132135849Y-106551762D01*
X132227961Y-106354225D01*
X132227961Y-106354224D01*
X132230284Y-106349243D01*
X132289543Y-106128087D01*
X132309498Y-105900000D01*
X132289543Y-105671913D01*
X132230284Y-105450757D01*
X132227961Y-105445775D01*
X132135849Y-105248238D01*
X132135846Y-105248233D01*
X132133523Y-105243251D01*
X132002198Y-105055700D01*
X131840300Y-104893802D01*
X131835792Y-104890645D01*
X131835789Y-104890643D01*
X131757611Y-104835902D01*
X131652749Y-104762477D01*
X131647767Y-104760154D01*
X131647762Y-104760151D01*
X131450225Y-104668039D01*
X131450224Y-104668039D01*
X131445243Y-104665716D01*
X131439935Y-104664294D01*
X131439933Y-104664293D01*
X131229402Y-104607881D01*
X131229400Y-104607881D01*
X131224087Y-104606457D01*
X130996000Y-104586502D01*
X130767913Y-104606457D01*
X130762600Y-104607881D01*
X130762598Y-104607881D01*
X130552067Y-104664293D01*
X130552065Y-104664294D01*
X130546757Y-104665716D01*
X130541776Y-104668039D01*
X130541775Y-104668039D01*
X130344238Y-104760151D01*
X130344233Y-104760154D01*
X130339251Y-104762477D01*
X130234389Y-104835902D01*
X130156211Y-104890643D01*
X130156208Y-104890645D01*
X130151700Y-104893802D01*
X129989802Y-105055700D01*
X129858477Y-105243251D01*
X129856154Y-105248233D01*
X129856151Y-105248238D01*
X129764039Y-105445775D01*
X129761716Y-105450757D01*
X129702457Y-105671913D01*
X129682502Y-105900000D01*
X129702457Y-106128087D01*
X129761716Y-106349243D01*
X129764039Y-106354224D01*
X129764039Y-106354225D01*
X129856151Y-106551762D01*
X129856154Y-106551767D01*
X129858477Y-106556749D01*
X129989802Y-106744300D01*
X130151700Y-106906198D01*
X130156208Y-106909355D01*
X130156211Y-106909357D01*
X130195927Y-106937166D01*
X130339251Y-107037523D01*
X130344233Y-107039846D01*
X130344238Y-107039849D01*
X130498147Y-107111617D01*
X130546757Y-107134284D01*
X130552065Y-107135706D01*
X130552067Y-107135707D01*
X130762598Y-107192119D01*
X130762600Y-107192119D01*
X130767913Y-107193543D01*
X130996000Y-107213498D01*
X131001475Y-107213019D01*
X131001476Y-107213019D01*
X131042706Y-107209412D01*
X131112311Y-107223401D01*
X131163303Y-107272801D01*
X131179493Y-107341927D01*
X131155740Y-107408832D01*
X131122772Y-107440305D01*
X131097024Y-107457186D01*
X131093320Y-107459523D01*
X131030893Y-107497405D01*
X131022516Y-107504803D01*
X131022492Y-107504776D01*
X131019500Y-107507429D01*
X131016267Y-107510132D01*
X131010148Y-107514144D01*
X131005116Y-107519456D01*
X130956872Y-107570383D01*
X130954494Y-107572825D01*
X129111089Y-109416230D01*
X129096677Y-109428616D01*
X129085082Y-109437149D01*
X129085077Y-109437154D01*
X129079182Y-109441492D01*
X129074443Y-109447070D01*
X129074440Y-109447073D01*
X129044965Y-109481768D01*
X129038035Y-109489284D01*
X129032340Y-109494979D01*
X129030060Y-109497861D01*
X129014719Y-109517251D01*
X129011928Y-109520655D01*
X128971470Y-109568277D01*
X128964667Y-109576285D01*
X128961339Y-109582801D01*
X128957972Y-109587850D01*
X128954805Y-109592979D01*
X128950266Y-109598716D01*
X128919345Y-109664875D01*
X128917442Y-109668769D01*
X128884231Y-109733808D01*
X128882492Y-109740916D01*
X128880393Y-109746559D01*
X128878476Y-109752322D01*
X128875378Y-109758950D01*
X128873888Y-109766112D01*
X128873888Y-109766113D01*
X128860514Y-109830412D01*
X128859544Y-109834696D01*
X128842192Y-109905610D01*
X128841500Y-109916764D01*
X128841464Y-109916762D01*
X128841225Y-109920755D01*
X128840851Y-109924947D01*
X128839360Y-109932115D01*
X128839558Y-109939432D01*
X128841454Y-110009521D01*
X128841500Y-110012928D01*
X128841500Y-111832930D01*
X128840067Y-111851880D01*
X128836801Y-111873349D01*
X121008500Y-111873349D01*
X121008500Y-101986062D01*
X126774493Y-101986062D01*
X126783789Y-101998077D01*
X126834994Y-102033931D01*
X126844489Y-102039414D01*
X127041947Y-102131490D01*
X127052239Y-102135236D01*
X127262688Y-102191625D01*
X127273481Y-102193528D01*
X127490525Y-102212517D01*
X127501475Y-102212517D01*
X127718519Y-102193528D01*
X127729312Y-102191625D01*
X127939761Y-102135236D01*
X127950053Y-102131490D01*
X128147511Y-102039414D01*
X128157006Y-102033931D01*
X128209048Y-101997491D01*
X128217424Y-101987012D01*
X128210356Y-101973566D01*
X127508812Y-101272022D01*
X127494868Y-101264408D01*
X127493035Y-101264539D01*
X127486420Y-101268790D01*
X126780923Y-101974287D01*
X126774493Y-101986062D01*
X121008500Y-101986062D01*
X121008500Y-100905475D01*
X126183483Y-100905475D01*
X126202472Y-101122519D01*
X126204375Y-101133312D01*
X126260764Y-101343761D01*
X126264510Y-101354053D01*
X126356586Y-101551511D01*
X126362069Y-101561006D01*
X126398509Y-101613048D01*
X126408988Y-101621424D01*
X126422434Y-101614356D01*
X127123978Y-100912812D01*
X127130356Y-100901132D01*
X127860408Y-100901132D01*
X127860539Y-100902965D01*
X127864790Y-100909580D01*
X128570287Y-101615077D01*
X128582062Y-101621507D01*
X128594077Y-101612211D01*
X128629931Y-101561006D01*
X128635414Y-101551511D01*
X128727490Y-101354053D01*
X128731236Y-101343761D01*
X128787625Y-101133312D01*
X128789528Y-101122519D01*
X128808517Y-100905475D01*
X128808517Y-100894525D01*
X128789528Y-100677481D01*
X128787625Y-100666688D01*
X128731236Y-100456239D01*
X128727490Y-100445947D01*
X128635414Y-100248489D01*
X128629931Y-100238994D01*
X128593491Y-100186952D01*
X128583012Y-100178576D01*
X128569566Y-100185644D01*
X127868022Y-100887188D01*
X127860408Y-100901132D01*
X127130356Y-100901132D01*
X127131592Y-100898868D01*
X127131461Y-100897035D01*
X127127210Y-100890420D01*
X126421713Y-100184923D01*
X126409938Y-100178493D01*
X126397923Y-100187789D01*
X126362069Y-100238994D01*
X126356586Y-100248489D01*
X126264510Y-100445947D01*
X126260764Y-100456239D01*
X126204375Y-100666688D01*
X126202472Y-100677481D01*
X126183483Y-100894525D01*
X126183483Y-100905475D01*
X121008500Y-100905475D01*
X121008500Y-99812988D01*
X126774576Y-99812988D01*
X126781644Y-99826434D01*
X127483188Y-100527978D01*
X127497132Y-100535592D01*
X127498965Y-100535461D01*
X127505580Y-100531210D01*
X128211077Y-99825713D01*
X128217507Y-99813938D01*
X128208211Y-99801923D01*
X128157006Y-99766069D01*
X128147511Y-99760586D01*
X127950053Y-99668510D01*
X127939761Y-99664764D01*
X127729312Y-99608375D01*
X127718519Y-99606472D01*
X127501475Y-99587483D01*
X127490525Y-99587483D01*
X127273481Y-99606472D01*
X127262688Y-99608375D01*
X127052239Y-99664764D01*
X127041947Y-99668510D01*
X126844489Y-99760586D01*
X126834994Y-99766069D01*
X126782952Y-99802509D01*
X126774576Y-99812988D01*
X121008500Y-99812988D01*
X121008500Y-96489269D01*
X121028502Y-96421148D01*
X121082158Y-96374655D01*
X121152432Y-96364551D01*
X121217012Y-96394045D01*
X121229232Y-96406191D01*
X121399573Y-96600427D01*
X121402662Y-96603136D01*
X121619062Y-96792915D01*
X121619068Y-96792919D01*
X121622162Y-96795633D01*
X121625588Y-96797922D01*
X121625593Y-96797926D01*
X121809405Y-96920744D01*
X121868327Y-96960115D01*
X121872026Y-96961939D01*
X121872031Y-96961942D01*
X122008313Y-97029148D01*
X122133855Y-97091059D01*
X122137760Y-97092384D01*
X122137761Y-97092385D01*
X122410290Y-97184896D01*
X122410294Y-97184897D01*
X122414203Y-97186224D01*
X122418247Y-97187028D01*
X122418253Y-97187030D01*
X122700535Y-97243180D01*
X122700541Y-97243181D01*
X122704574Y-97243983D01*
X122708679Y-97244252D01*
X122708686Y-97244253D01*
X122995881Y-97263076D01*
X123000000Y-97263346D01*
X123004119Y-97263076D01*
X123291314Y-97244253D01*
X123291321Y-97244252D01*
X123295426Y-97243983D01*
X123299459Y-97243181D01*
X123299465Y-97243180D01*
X123581747Y-97187030D01*
X123581753Y-97187028D01*
X123585797Y-97186224D01*
X123589706Y-97184897D01*
X123589710Y-97184896D01*
X123862239Y-97092385D01*
X123862240Y-97092384D01*
X123866145Y-97091059D01*
X123991687Y-97029148D01*
X124127969Y-96961942D01*
X124127974Y-96961939D01*
X124131673Y-96960115D01*
X124190595Y-96920744D01*
X124374407Y-96797926D01*
X124374412Y-96797922D01*
X124377838Y-96795633D01*
X124380932Y-96792919D01*
X124380938Y-96792915D01*
X124597338Y-96603136D01*
X124600427Y-96600427D01*
X124603136Y-96597338D01*
X124792915Y-96380938D01*
X124792919Y-96380932D01*
X124795633Y-96377838D01*
X124804512Y-96364551D01*
X124957821Y-96135106D01*
X124960115Y-96131673D01*
X125091059Y-95866145D01*
X125186224Y-95585797D01*
X125243983Y-95295426D01*
X125263346Y-95000000D01*
X125243983Y-94704574D01*
X125186224Y-94414203D01*
X125091059Y-94133855D01*
X124960115Y-93868327D01*
X124920744Y-93809405D01*
X124797926Y-93625593D01*
X124797922Y-93625588D01*
X124795633Y-93622162D01*
X124792919Y-93619068D01*
X124792915Y-93619062D01*
X124603136Y-93402662D01*
X124600427Y-93399573D01*
X124406191Y-93229232D01*
X124368164Y-93169278D01*
X124368586Y-93098283D01*
X124407325Y-93038786D01*
X124472080Y-93009678D01*
X124489269Y-93008500D01*
X164510731Y-93008500D01*
X164578852Y-93028502D01*
G37*
%TD.AperFunction*%
%TD*%
M02*
